<svg width="48" height="48" viewBox="0 0 48 48" fill="none" xmlns="http://www.w3.org/2000/svg">
<path fill-rule="evenodd" clip-rule="evenodd" d="M22.7743 4H30.4206C34.5538 4 37.9044 7.3506 37.9044 11.4838C37.9044 15.617 34.5538 18.9676 30.4206 18.9676H22.7743V4ZM25.2257 6.45139V16.5162H30.4206C33.2 16.5162 35.4531 14.2631 35.4531 11.4838C35.4531 8.70447 33.2 6.45139 30.4206 6.45139H25.2257Z" fill="black"/>
<path fill-rule="evenodd" clip-rule="evenodd" d="M10.0956 11.4838C10.0956 7.3506 13.4462 4 17.5794 4H25.2257V18.9676H17.5794C13.4462 18.9676 10.0956 15.617 10.0956 11.4838ZM17.5794 6.45139C14.8 6.45139 12.547 8.70447 12.547 11.4838C12.547 14.2631 14.8001 16.5162 17.5794 16.5162H22.7743V6.45139H17.5794Z" fill="black"/>
<path fill-rule="evenodd" clip-rule="evenodd" d="M10.0956 24.0002C10.0956 19.867 13.4462 16.5164 17.5794 16.5164H25.2257V31.484H17.5794C13.4462 31.484 10.0956 28.1333 10.0956 24.0002ZM17.5794 18.9678C14.8 18.9678 12.547 21.2208 12.547 24.0002C12.547 26.7795 14.8001 29.0326 17.5794 29.0326H22.7743V18.9678H17.5794Z" fill="black"/>
<path fill-rule="evenodd" clip-rule="evenodd" d="M10.0956 36.5162C10.0956 32.383 13.4462 29.0324 17.5794 29.0324H25.2257V36.4349C25.2257 40.6232 21.7876 44 17.6198 44C13.4968 44 10.0956 40.6596 10.0956 36.5162ZM17.5794 31.4838C14.8001 31.4838 12.547 33.7369 12.547 36.5162C12.547 39.2853 14.8302 41.5486 17.6198 41.5486C20.4542 41.5486 22.7743 39.2489 22.7743 36.4349V31.4838H17.5794Z" fill="black"/>
<path fill-rule="evenodd" clip-rule="evenodd" d="M22.7743 24.0002C22.7743 19.867 26.1249 16.5164 30.2581 16.5164H30.4206C34.5538 16.5164 37.9044 19.867 37.9044 24.0002C37.9044 28.1333 34.5538 31.484 30.4206 31.484H30.2581C26.1249 31.484 22.7743 28.1333 22.7743 24.0002ZM30.2581 18.9678C27.4788 18.9678 25.2257 21.2208 25.2257 24.0002C25.2257 26.7795 27.4788 29.0326 30.2581 29.0326H30.4206C33.2 29.0326 35.4531 26.7795 35.4531 24.0002C35.4531 21.2208 33.2 18.9678 30.4206 18.9678H30.2581Z" fill="black"/>
</svg>
