<svg width="134" height="115" viewBox="0 0 134 115" fill="none" xmlns="http://www.w3.org/2000/svg">
<path d="M116.614 0.0026706C117.453 0.0017893 118.291 0.000908007 119.154 0C120.02 0.0026439 120.887 0.00528778 121.779 0.0080118C123.087 0.00404596 123.087 0.00404596 124.421 0C125.257 0.000881296 126.093 0.00176259 126.955 0.0026706C127.717 0.00344174 128.478 0.00421287 129.263 0.00500737C130.969 0.0803667 132.376 0.279904 134 0.777144C132.978 3.2883 131.57 4.60277 129.471 6.28926C128.912 6.74842 128.353 7.20757 127.777 7.68064C122.187 11.3499 117.285 11.2949 110.755 11.1604C109.471 11.1466 109.471 11.1466 108.162 11.1324C106.063 11.1084 103.966 11.0747 101.867 11.0322C101.558 13.7201 101.558 13.7201 103.04 15.0328C103.541 15.4329 104.043 15.833 104.559 16.2453C107.283 18.4455 107.283 18.4455 108.02 19.92C108.087 20.8437 108.112 21.7706 108.115 22.6967C108.119 23.2776 108.122 23.8585 108.126 24.457C108.127 25.0956 108.127 25.7342 108.128 26.3922C108.132 27.0637 108.135 27.7352 108.139 28.427C108.146 29.8883 108.152 31.3495 108.157 32.8107C108.165 35.1202 108.178 37.4296 108.193 39.7391C108.235 46.3064 108.272 52.8738 108.295 59.4412C108.309 63.4546 108.333 67.4678 108.364 71.4811C108.373 73.0141 108.379 74.5472 108.382 76.0803C108.385 78.22 108.401 80.3592 108.419 82.4988C108.417 83.1374 108.415 83.7761 108.413 84.434C108.421 85.0149 108.428 85.5958 108.436 86.1944C108.439 86.9536 108.439 86.9536 108.443 87.7282C108.612 89.2557 108.612 89.2557 110.755 90.3384C110.755 90.7896 110.755 91.2408 110.755 91.7057C111.658 92.1569 112.56 92.6082 113.49 93.0731C113.11 95.5666 112.265 96.5052 110.328 98.0724C107.95 100.035 105.887 102.101 103.873 104.434C101.848 105.882 100.234 105.99 97.7653 106.063C95.4446 105.203 95.4446 105.203 93.1078 103.926C92.2755 103.482 91.4431 103.038 90.6108 102.594C90.2046 102.371 89.7984 102.149 89.38 101.92C87.6675 100.992 85.9236 100.131 84.1773 99.2689C83.2372 98.7988 82.2972 98.3288 81.3571 97.8588C82.6395 95.0643 84.444 92.782 86.3111 90.3544C89.5938 84.6956 89.8522 79.0654 89.7321 72.6483C89.7269 71.526 89.7269 71.526 89.7215 70.381C89.6742 65.3854 89.36 60.4426 88.8775 55.471C88.5891 55.825 88.3007 56.1789 88.0036 56.5436C84.6616 60.6451 84.6616 60.6451 82.0408 61.6241C80.1346 61.7198 78.3023 61.7532 76.4005 61.7095C75.8911 61.7034 75.3817 61.6972 74.8569 61.6909C73.6052 61.6748 72.3536 61.6503 71.102 61.6241C71.1323 65.3592 71.18 69.0934 71.2439 72.8281C71.2632 74.0979 71.2777 75.3678 71.2873 76.6377C71.302 78.4659 71.3339 80.2931 71.3691 82.1209C71.3699 82.6865 71.3708 83.2521 71.3716 83.8348C71.4596 87.3144 71.8968 89.1897 74.5204 91.7057C75.5357 92.3826 75.5357 92.3826 76.5714 93.0731C75.0928 96.3491 72.77 98.5973 70.2902 101.149C69.8473 101.631 69.4045 102.114 68.9482 102.611C65.6384 106.007 65.6384 106.007 62.711 106.244C59.1381 105.031 55.7528 103.531 52.3437 101.918C51.648 101.595 50.9522 101.272 50.2353 100.939C48.5283 100.146 46.8243 99.3469 45.1224 98.5425C44.2415 99.4107 43.3623 100.281 42.4839 101.152C41.9941 101.636 41.5043 102.12 40.9997 102.619C39.5563 104.059 39.5563 104.059 38.1148 106.02C36.7304 107.652 36.2621 107.847 34.1837 108.114C32.5065 107.756 32.5065 107.756 30.5944 107.174C23.3747 105.256 14.143 103.748 7.3762 107.609C4.41366 109.647 2.67566 111.516 1.36735 114.951C0.916122 114.951 0.464898 114.951 0 114.951C0.413501 108.61 3.57152 102.848 8.20408 98.5425C15.1885 92.7472 23.1136 91.6943 31.945 92.2118C35.1283 92.5754 38.2417 93.4478 41.2798 94.4513C42.8136 94.952 42.8136 94.952 45.1224 95.1241C48.892 92.2399 51.2903 88.2073 51.9592 83.5016C52.0982 81.2372 52.151 78.973 52.1995 76.705C52.216 76.0323 52.2325 75.3597 52.2495 74.6667C52.4074 67.901 52.5024 61.1341 52.5831 54.3671C52.6169 51.6225 52.6662 48.8794 52.7373 46.1356C52.8104 43.2968 52.845 40.4604 52.8461 37.6206C52.8529 36.6016 52.8737 35.5826 52.9096 34.5642C53.053 30.2622 53.1054 26.4091 50.0721 23.06C48.0984 21.1394 45.9882 19.4769 43.7551 17.869C44.1608 15.6249 44.307 15.2381 46.204 13.7429C46.9329 13.2855 47.6617 12.8281 48.4126 12.3569C51.3421 10.5345 51.3421 10.5345 54.0609 8.42841C55.3775 7.61388 55.3775 7.61388 57.0039 7.6032C59.4216 8.53999 61.0352 10.1018 62.8552 11.8868C63.5442 12.5465 64.2341 13.2053 64.9249 13.8631C65.2254 14.1559 65.5259 14.4487 65.8354 14.7504C67.0942 15.9627 67.0942 15.9627 69.1463 17.2172C70.5023 18.3484 71.0345 18.9795 71.4871 20.702C71.6426 22.5287 71.67 24.3172 71.6522 26.1505C71.6662 27.1448 71.6662 27.1448 71.6806 28.1592C71.7061 30.27 71.7035 32.3798 71.7003 34.4908C71.7126 35.9245 71.7269 37.3581 71.743 38.7918C71.7819 42.3012 71.7828 45.8076 71.7857 49.318C77.6516 49.318 83.5175 49.318 89.5612 49.318C89.5735 45.9827 89.5711 42.654 89.532 39.3199C89.5231 38.1874 89.5225 37.0548 89.5307 35.9222C89.8077 29.5847 89.8077 29.5847 87.8522 23.7794C86.6404 22.7394 85.5002 22.0283 84.0918 21.2873C83.2952 20.6483 82.5109 19.9936 81.7417 19.3218C81.1636 18.8424 80.5854 18.3629 79.9898 17.869C80.248 16.2287 80.425 15.358 81.6793 14.2288C82.1035 13.9697 82.5278 13.7107 82.9648 13.4438C83.6694 13.0082 83.6694 13.0082 84.3883 12.5638C84.8827 12.2699 85.3771 11.976 85.8865 11.6732C86.365 11.3766 86.8436 11.0801 87.3366 10.7745C89.5704 9.41314 91.7813 8.1754 94.1974 7.16789C96.0092 6.4093 97.4473 5.64661 99.0472 4.53735C104.407 1.08905 110.305 0.00904646 116.614 0.0026706Z" fill="#C1BCAE"/>
<path d="M38.2859 20.6034C38.7371 20.829 39.1883 21.0546 39.6532 21.2871C39.6532 30.5372 39.6532 39.7873 39.6532 49.3177C43.0374 49.3177 46.4216 49.3177 49.9083 49.3177C50.592 52.0524 50.592 52.0524 49.9297 53.5693C47.5489 57.1161 45.6503 59.2277 41.7043 60.9401C41.0274 60.9401 40.3506 60.9401 39.6532 60.9401C39.685 61.6584 39.7167 62.3766 39.7494 63.1167C39.9678 70.1426 39.5464 75.6288 34.6112 81.1192C28.2611 86.9197 28.2611 86.9197 24.6124 86.9197C23.5461 84.787 23.846 82.524 23.862 80.1845C23.863 79.6553 23.8639 79.1261 23.8649 78.5809C23.8687 76.8881 23.8773 75.1954 23.886 73.5026C23.8895 72.356 23.8926 71.2095 23.8954 70.0629C23.9029 67.2498 23.9147 64.4368 23.9288 61.6238C23.1946 61.6766 22.4605 61.7294 21.7041 61.7839C20.7223 61.8509 19.7404 61.9177 18.7585 61.9843C18.036 62.037 18.036 62.037 17.299 62.0907C13.0788 62.3715 8.98483 62.1407 4.78589 61.6238C3.97417 59.1886 4.44541 58.2616 5.50963 55.9995C7.11754 52.9705 8.8501 50.9282 12.114 49.6542C15.5359 48.9159 19.0827 49.1764 22.5614 49.3177C22.5257 48.4743 22.5257 48.4743 22.4893 47.6138C22.2995 39.787 23.5051 33.5046 28.7145 27.4401C31.5789 24.8384 34.7932 22.2968 38.2859 20.6034Z" fill="#C1BCAE"/>
</svg>
