<svg width="155" height="41" viewBox="0 0 155 41" fill="none" xmlns="http://www.w3.org/2000/svg">
<path d="M42.14 16L49.58 2.24H54.32L55.9 16H52.5L52.18 13.28H47.12L45.64 16H42.14ZM48.34 10.72H52L51.42 5.24H51.28L48.34 10.72ZM57.5211 16L60.4611 2.24H63.9611L61.6211 13.24H67.1211L66.5211 16H57.5211ZM68.3219 16L71.2619 2.24H78.1219C78.9219 2.24 79.5819 2.34667 80.1019 2.56C80.6352 2.76 81.0352 3.05333 81.3019 3.44C81.5819 3.81333 81.7219 4.28 81.7219 4.84C81.7219 5.04 81.7085 5.24 81.6819 5.44C81.6552 5.62667 81.6152 5.82 81.5619 6.02C81.3485 6.88667 80.9819 7.55333 80.4619 8.02C79.9419 8.47333 79.2552 8.78 78.4019 8.94V9.02C78.8419 9.11333 79.2085 9.26 79.5019 9.46C79.7952 9.64667 80.0152 9.89333 80.1619 10.2C80.3085 10.4933 80.3819 10.8667 80.3819 11.32C80.3819 11.4667 80.3752 11.6133 80.3619 11.76C80.3485 11.9067 80.3285 12.06 80.3019 12.22C80.2885 12.3667 80.2619 12.52 80.2219 12.68C80.1019 13.1867 79.9285 13.6467 79.7019 14.06C79.4885 14.4733 79.2019 14.8267 78.8419 15.12C78.4952 15.4 78.0485 15.62 77.5019 15.78C76.9685 15.9267 76.3219 16 75.5619 16H68.3219ZM72.3219 13.44H74.7019C75.1952 13.44 75.5819 13.4 75.8619 13.32C76.1419 13.2267 76.3552 13.06 76.5019 12.82C76.6485 12.58 76.7685 12.2467 76.8619 11.82C76.8885 11.6733 76.9085 11.5467 76.9219 11.44C76.9485 11.32 76.9619 11.2067 76.9619 11.1C76.9619 10.7533 76.8419 10.5133 76.6019 10.38C76.3619 10.2467 75.9619 10.18 75.4019 10.18H73.0219L72.3219 13.44ZM73.5019 7.92H75.8419C76.2952 7.92 76.6619 7.87333 76.9419 7.78C77.2219 7.68667 77.4419 7.52667 77.6019 7.3C77.7619 7.07333 77.8819 6.76667 77.9619 6.38C77.9885 6.23333 78.0085 6.10667 78.0219 6C78.0352 5.88 78.0419 5.76 78.0419 5.64C78.0419 5.30667 77.9285 5.08667 77.7019 4.98C77.4752 4.86 77.0752 4.8 76.5019 4.8H74.1619L73.5019 7.92ZM80.5384 16L87.9784 2.24H92.7184L94.2984 16H90.8984L90.5784 13.28H85.5184L84.0384 16H80.5384ZM86.7384 10.72H90.3984L89.8184 5.24H89.6784L86.7384 10.72ZM95.9195 16L98.8595 2.24H105.46C106.473 2.24 107.253 2.34667 107.8 2.56C108.346 2.77333 108.733 3.08 108.96 3.48C109.186 3.88 109.3 4.37333 109.3 4.96C109.3 5.13333 109.286 5.32667 109.26 5.54C109.246 5.74 109.22 5.95333 109.18 6.18C109.14 6.40667 109.093 6.64 109.04 6.88C108.933 7.36 108.806 7.8 108.66 8.2C108.526 8.6 108.366 8.95333 108.18 9.26C107.993 9.56667 107.753 9.84 107.46 10.08C107.166 10.3067 106.8 10.4933 106.36 10.64L107.32 16H103.78L103.1 11.06C103.006 11.06 102.906 11.06 102.8 11.06C102.693 11.06 102.58 11.06 102.46 11.06H100.48L99.4195 16H95.9195ZM101 8.58H103.18C103.633 8.58 103.993 8.55333 104.26 8.5C104.54 8.43333 104.76 8.33333 104.92 8.2C105.08 8.06667 105.206 7.88 105.3 7.64C105.393 7.38667 105.48 7.07333 105.56 6.7C105.6 6.48667 105.633 6.29333 105.66 6.12C105.686 5.94667 105.7 5.79333 105.7 5.66C105.7 5.46 105.653 5.3 105.56 5.18C105.466 5.04667 105.293 4.95333 105.04 4.9C104.8 4.83333 104.46 4.8 104.02 4.8H101.8L101 8.58ZM109.494 16L112.434 2.24H117.134L118.334 10.36H118.494L123.134 2.24H127.894L124.954 16H121.614L123.514 7.08H123.354L118.334 16H116.014L114.814 7.08H114.654L112.754 16H109.494ZM133.214 16.16C132.64 16.16 132.027 16.1467 131.374 16.12C130.734 16.0933 130.107 16.0533 129.494 16C128.88 15.9467 128.34 15.8933 127.874 15.84L128.394 13.3C128.874 13.34 129.367 13.38 129.874 13.42C130.38 13.46 130.86 13.4933 131.314 13.52C131.78 13.5333 132.18 13.54 132.514 13.54C132.927 13.54 133.274 13.5333 133.554 13.52C133.847 13.5067 134.087 13.48 134.274 13.44C134.474 13.4 134.647 13.3467 134.794 13.28C134.887 13.2133 134.974 13.1267 135.054 13.02C135.134 12.9133 135.207 12.7933 135.274 12.66C135.34 12.5133 135.387 12.3667 135.414 12.22C135.454 12.06 135.48 11.9067 135.494 11.76C135.52 11.6 135.534 11.4667 135.534 11.36C135.534 11.1867 135.494 11.06 135.414 10.98C135.334 10.8867 135.174 10.8133 134.934 10.76C134.707 10.7067 134.36 10.64 133.894 10.56L131.114 10.14C130.407 10.0467 129.92 9.81333 129.654 9.44C129.387 9.05333 129.254 8.52667 129.254 7.86C129.254 7.59333 129.274 7.3 129.314 6.98C129.354 6.64667 129.414 6.3 129.494 5.94C129.694 5.1 129.96 4.42667 130.294 3.92C130.64 3.4 131.06 3.01333 131.554 2.76C132.06 2.49333 132.647 2.31333 133.314 2.22C133.98 2.12667 134.72 2.08 135.534 2.08C136.094 2.08 136.674 2.1 137.274 2.14C137.874 2.16667 138.434 2.20667 138.954 2.26C139.474 2.31333 139.907 2.38 140.254 2.46L139.734 4.94C139.374 4.9 138.96 4.86 138.494 4.82C138.04 4.78 137.567 4.75333 137.074 4.74C136.58 4.71333 136.12 4.7 135.694 4.7C135.334 4.7 135.027 4.71333 134.774 4.74C134.52 4.75333 134.3 4.78667 134.114 4.84C133.927 4.88 133.774 4.94 133.654 5.02C133.52 5.1 133.407 5.20667 133.314 5.34C133.22 5.46 133.14 5.6 133.074 5.76C133.02 5.92 132.98 6.08 132.954 6.24C132.94 6.4 132.934 6.56 132.934 6.72C132.934 6.96 133.02 7.12 133.194 7.2C133.367 7.26667 133.68 7.33333 134.134 7.4L136.754 7.78C137.194 7.84667 137.6 7.94667 137.974 8.08C138.347 8.21333 138.647 8.44667 138.874 8.78C139.1 9.1 139.214 9.58667 139.214 10.24C139.214 10.4 139.207 10.5733 139.194 10.76C139.18 10.9467 139.154 11.1467 139.114 11.36C139.087 11.5733 139.047 11.7933 138.994 12.02C138.78 12.98 138.5 13.74 138.154 14.3C137.82 14.8467 137.414 15.2533 136.934 15.52C136.454 15.7867 135.907 15.96 135.294 16.04C134.68 16.12 133.987 16.16 133.214 16.16Z" fill="#DFDFE4"/>
<path d="M42.844 33L42.196 20.616H44.212L44.662 30.39H44.788L49.684 20.616H51.772L52.546 30.39H52.654L57.208 20.616H59.332L53.392 33H50.944L50.116 23.82H50.008L45.292 33H42.844ZM64.0429 33.144C62.8189 33.144 61.8589 33.066 61.1629 32.91C60.4669 32.754 59.9749 32.478 59.6869 32.082C59.3989 31.686 59.2549 31.122 59.2549 30.39C59.2549 29.946 59.3029 29.43 59.3989 28.842C59.5069 28.242 59.6449 27.546 59.8129 26.754C60.0289 25.698 60.2329 24.804 60.4249 24.072C60.6169 23.328 60.8449 22.722 61.1089 22.254C61.3729 21.774 61.7149 21.408 62.1349 21.156C62.5549 20.892 63.0889 20.712 63.7369 20.616C64.3969 20.52 65.2189 20.472 66.2029 20.472C67.4269 20.472 68.3809 20.55 69.0649 20.706C69.7609 20.862 70.2529 21.144 70.5409 21.552C70.8289 21.948 70.9729 22.518 70.9729 23.262C70.9729 23.706 70.9249 24.222 70.8289 24.81C70.7449 25.386 70.6189 26.07 70.4509 26.862C70.2229 27.918 70.0069 28.818 69.8029 29.562C69.5989 30.294 69.3649 30.894 69.1009 31.362C68.8369 31.83 68.4949 32.196 68.0749 32.46C67.6669 32.712 67.1389 32.892 66.4909 33C65.8429 33.096 65.0269 33.144 64.0429 33.144ZM64.1329 31.47C64.7449 31.47 65.2489 31.452 65.6449 31.416C66.0529 31.38 66.3889 31.29 66.6529 31.146C66.9169 31.002 67.1389 30.768 67.3189 30.444C67.4989 30.108 67.6669 29.646 67.8229 29.058C67.9909 28.47 68.1709 27.72 68.3629 26.808C68.5429 26.052 68.6689 25.41 68.7409 24.882C68.8249 24.342 68.8669 23.898 68.8669 23.55C68.8669 23.094 68.7769 22.77 68.5969 22.578C68.4169 22.374 68.1229 22.254 67.7149 22.218C67.3189 22.17 66.7849 22.146 66.1129 22.146C65.5009 22.146 64.9909 22.164 64.5829 22.2C64.1749 22.236 63.8329 22.326 63.5569 22.47C63.2929 22.614 63.0709 22.854 62.8909 23.19C62.7109 23.514 62.5429 23.97 62.3869 24.558C62.2309 25.146 62.0569 25.896 61.8649 26.808C61.7569 27.312 61.6609 27.774 61.5769 28.194C61.5049 28.602 61.4449 28.962 61.3969 29.274C61.3489 29.574 61.3249 29.844 61.3249 30.084C61.3249 30.528 61.4149 30.852 61.5949 31.056C61.7869 31.248 62.0869 31.368 62.4949 31.416C62.9029 31.452 63.4489 31.47 64.1329 31.47ZM72.2564 33L74.9024 20.616H80.5904C81.4664 20.616 82.1384 20.718 82.6064 20.922C83.0864 21.114 83.4224 21.39 83.6144 21.75C83.8064 22.11 83.9024 22.542 83.9024 23.046C83.9024 23.19 83.8904 23.346 83.8664 23.514C83.8544 23.682 83.8304 23.862 83.7944 24.054C83.7704 24.234 83.7344 24.414 83.6864 24.594C83.5784 25.05 83.4524 25.464 83.3084 25.836C83.1764 26.196 83.0144 26.514 82.8224 26.79C82.6424 27.066 82.4084 27.3 82.1204 27.492C81.8324 27.684 81.4784 27.834 81.0584 27.942L82.0664 33H79.9424L79.1324 28.194C79.0004 28.194 78.8624 28.2 78.7184 28.212C78.5864 28.212 78.4484 28.212 78.3044 28.212H75.3344L74.3084 33H72.2564ZM75.6764 26.592H78.8264C79.3784 26.592 79.8224 26.55 80.1584 26.466C80.4944 26.382 80.7524 26.256 80.9324 26.088C81.1244 25.908 81.2684 25.68 81.3644 25.404C81.4724 25.128 81.5624 24.804 81.6344 24.432C81.6944 24.216 81.7364 24.018 81.7604 23.838C81.7844 23.658 81.7964 23.496 81.7964 23.352C81.7964 23.112 81.7364 22.908 81.6164 22.74C81.5084 22.572 81.3104 22.452 81.0224 22.38C80.7464 22.296 80.3564 22.254 79.8524 22.254H76.6124L75.6764 26.592ZM84.7896 33L87.4356 20.616H89.4876L88.3716 25.89H90.3336L95.4636 20.616H97.8396L91.7736 26.772L95.2476 33H92.9976L89.9736 27.528H88.0116L86.8416 33H84.7896ZM102.02 33.144C101.504 33.144 100.958 33.132 100.382 33.108C99.8184 33.084 99.2604 33.048 98.7084 33C98.1564 32.964 97.6584 32.922 97.2144 32.874L97.5564 31.236C97.9764 31.272 98.4264 31.308 98.9064 31.344C99.3864 31.38 99.8484 31.41 100.292 31.434C100.748 31.458 101.138 31.47 101.462 31.47C101.87 31.47 102.224 31.464 102.524 31.452C102.824 31.44 103.088 31.41 103.316 31.362C103.544 31.314 103.748 31.242 103.928 31.146C104.084 31.062 104.216 30.942 104.324 30.786C104.432 30.63 104.528 30.45 104.612 30.246C104.696 30.042 104.762 29.838 104.81 29.634C104.858 29.418 104.894 29.22 104.918 29.04C104.942 28.848 104.954 28.692 104.954 28.572C104.954 28.368 104.906 28.218 104.81 28.122C104.714 28.014 104.552 27.936 104.324 27.888C104.096 27.84 103.784 27.792 103.388 27.744L100.472 27.33C99.7164 27.234 99.2004 27.018 98.9244 26.682C98.6604 26.334 98.5284 25.866 98.5284 25.278C98.5284 25.062 98.5404 24.822 98.5644 24.558C98.6004 24.294 98.6484 24.024 98.7084 23.748C98.8764 23.028 99.1044 22.452 99.3924 22.02C99.6804 21.588 100.034 21.264 100.454 21.048C100.886 20.82 101.384 20.67 101.948 20.598C102.512 20.514 103.148 20.472 103.856 20.472C104.372 20.472 104.894 20.484 105.422 20.508C105.95 20.532 106.448 20.568 106.916 20.616C107.384 20.664 107.774 20.718 108.086 20.778L107.762 22.362C107.426 22.314 107.042 22.278 106.61 22.254C106.178 22.218 105.74 22.194 105.296 22.182C104.864 22.158 104.45 22.146 104.054 22.146C103.646 22.146 103.286 22.158 102.974 22.182C102.674 22.206 102.416 22.242 102.2 22.29C101.984 22.338 101.792 22.41 101.624 22.506C101.456 22.602 101.306 22.74 101.174 22.92C101.054 23.088 100.952 23.28 100.868 23.496C100.796 23.712 100.742 23.934 100.706 24.162C100.682 24.378 100.67 24.582 100.67 24.774C100.67 25.062 100.76 25.254 100.94 25.35C101.132 25.446 101.468 25.524 101.948 25.584L104.756 25.926C105.212 25.986 105.614 26.076 105.962 26.196C106.322 26.304 106.604 26.502 106.808 26.79C107.012 27.066 107.114 27.486 107.114 28.05C107.114 28.182 107.108 28.332 107.096 28.5C107.084 28.668 107.06 28.848 107.024 29.04C107 29.22 106.964 29.418 106.916 29.634C106.736 30.45 106.496 31.098 106.196 31.578C105.896 32.058 105.542 32.412 105.134 32.64C104.726 32.856 104.264 32.994 103.748 33.054C103.232 33.114 102.656 33.144 102.02 33.144ZM108.942 33L111.588 20.616H117.078C117.942 20.616 118.614 20.718 119.094 20.922C119.574 21.126 119.91 21.414 120.102 21.786C120.294 22.158 120.39 22.602 120.39 23.118C120.39 23.346 120.366 23.598 120.318 23.874C120.282 24.138 120.234 24.408 120.174 24.684C120.066 25.236 119.922 25.752 119.742 26.232C119.574 26.7 119.34 27.114 119.04 27.474C118.74 27.822 118.332 28.092 117.816 28.284C117.3 28.476 116.634 28.572 115.818 28.572H111.948L110.994 33H108.942ZM112.308 26.934H115.278C115.83 26.934 116.268 26.892 116.592 26.808C116.928 26.712 117.192 26.574 117.384 26.394C117.576 26.202 117.726 25.956 117.834 25.656C117.942 25.356 118.044 25.002 118.14 24.594C118.188 24.354 118.224 24.138 118.248 23.946C118.284 23.742 118.302 23.562 118.302 23.406C118.302 23.142 118.242 22.926 118.122 22.758C118.014 22.578 117.81 22.452 117.51 22.38C117.222 22.296 116.82 22.254 116.304 22.254H113.298L112.308 26.934ZM118.878 33L126.15 20.616H128.796L130.812 33H128.778L128.256 29.904H122.802L120.966 33H118.878ZM123.666 28.266H128.058L127.14 22.578H127.032L123.666 28.266ZM137.707 33.144C136.639 33.144 135.769 33.066 135.097 32.91C134.437 32.742 133.951 32.442 133.639 32.01C133.327 31.578 133.171 30.966 133.171 30.174C133.171 29.754 133.213 29.268 133.297 28.716C133.381 28.164 133.501 27.528 133.657 26.808C133.897 25.728 134.131 24.816 134.359 24.072C134.599 23.328 134.863 22.722 135.151 22.254C135.439 21.774 135.793 21.408 136.213 21.156C136.645 20.904 137.167 20.73 137.779 20.634C138.391 20.526 139.135 20.472 140.011 20.472C140.371 20.472 140.755 20.484 141.163 20.508C141.571 20.532 141.955 20.568 142.315 20.616C142.675 20.652 142.987 20.694 143.251 20.742L142.909 22.326C142.585 22.278 142.267 22.242 141.955 22.218C141.643 22.194 141.355 22.176 141.091 22.164C140.827 22.152 140.593 22.146 140.389 22.146C139.705 22.146 139.129 22.17 138.661 22.218C138.193 22.266 137.809 22.374 137.509 22.542C137.209 22.71 136.957 22.968 136.753 23.316C136.561 23.652 136.387 24.108 136.231 24.684C136.075 25.248 135.907 25.956 135.727 26.808C135.583 27.492 135.469 28.08 135.385 28.572C135.301 29.052 135.259 29.466 135.259 29.814C135.259 30.306 135.361 30.672 135.565 30.912C135.769 31.152 136.099 31.308 136.555 31.38C137.011 31.44 137.629 31.47 138.409 31.47C138.817 31.47 139.267 31.452 139.759 31.416C140.263 31.38 140.701 31.338 141.073 31.29L140.731 32.91C140.467 32.958 140.161 33 139.813 33.036C139.465 33.072 139.111 33.096 138.751 33.108C138.391 33.132 138.043 33.144 137.707 33.144ZM143.518 33L146.164 20.616H154.696L154.336 22.29H147.874L147.082 25.926H152.662L152.32 27.564H146.74L145.93 31.326H152.41L152.05 33H143.518Z" fill="#CCF96D"/>
<g clip-path="url(#clip0_1481_555)">
<rect width="35" height="35" fill="#CCF96D"/>
<path d="M33.4209 1.00079C33.6683 1.00053 33.9157 1.00027 34.1706 1C34.4263 1.00078 34.682 1.00156 34.9454 1.00236C35.3313 1.00119 35.3313 1.00119 35.725 1C35.9719 1.00026 36.2188 1.00052 36.4731 1.00079C36.6979 1.00102 36.9227 1.00124 37.1543 1.00148C37.6578 1.02372 38.0732 1.08262 38.5526 1.22939C38.2508 1.9706 37.8353 2.35859 37.2157 2.85639C37.0507 2.99192 36.8858 3.12745 36.7159 3.26708C35.0657 4.35014 33.6188 4.3339 31.6914 4.29421C31.3125 4.29011 31.3125 4.29011 30.926 4.28593C30.3066 4.27884 29.6874 4.26891 29.068 4.25637C28.9766 5.04974 28.9766 5.04974 29.4141 5.43721C29.5621 5.55531 29.7101 5.67341 29.8626 5.79509C30.6666 6.44452 30.6666 6.44452 30.8842 6.87976C30.9038 7.15241 30.9111 7.42599 30.9121 7.69935C30.9132 7.87081 30.9143 8.04228 30.9154 8.21894C30.9156 8.40744 30.9158 8.59594 30.9161 8.79015C30.9171 8.98835 30.9181 9.18656 30.9192 9.39077C30.9213 9.82208 30.9231 10.2534 30.9244 10.6847C30.9268 11.3664 30.9307 12.0481 30.9352 12.7297C30.9476 14.6682 30.9585 16.6067 30.9652 18.5452C30.9694 19.7298 30.9765 20.9144 30.9856 22.099C30.9884 22.5515 30.9902 23.004 30.9908 23.4565C30.9918 24.0881 30.9965 24.7195 31.002 25.3511C31.0014 25.5396 31.0008 25.7281 31.0001 25.9223C31.0024 26.0937 31.0046 26.2652 31.0069 26.4419C31.0079 26.666 31.0079 26.666 31.0089 26.8946C31.059 27.3455 31.059 27.3455 31.6914 27.665C31.6914 27.7982 31.6914 27.9314 31.6914 28.0686C31.9578 28.2018 32.2242 28.335 32.4986 28.4722C32.3864 29.2082 32.1372 29.4853 31.5653 29.9479C30.8634 30.5272 30.2544 31.137 29.66 31.8256C29.0624 32.253 28.5859 32.2849 27.8572 32.3064C27.1722 32.0526 27.1722 32.0526 26.4825 31.6758C26.2368 31.5447 25.9911 31.4135 25.7454 31.2825C25.6256 31.2168 25.5057 31.1511 25.3822 31.0835C24.8767 30.8096 24.362 30.5555 23.8465 30.301C23.569 30.1623 23.2915 30.0236 23.0141 29.8848C23.3926 29.06 23.9252 28.3863 24.4763 27.6698C25.4453 25.9995 25.5216 24.3376 25.4861 22.4435C25.4845 22.1122 25.4845 22.1122 25.483 21.7743C25.469 20.2997 25.3763 18.8408 25.2339 17.3733C25.1487 17.4778 25.0636 17.5823 24.9759 17.6899C23.9894 18.9005 23.9894 18.9005 23.2159 19.1895C22.6532 19.2177 22.1124 19.2276 21.551 19.2147C21.4007 19.2129 21.2503 19.2111 21.0954 19.2092C20.7259 19.2045 20.3565 19.1972 19.9871 19.1895C19.996 20.292 20.0101 21.3942 20.029 22.4966C20.0347 22.8714 20.0389 23.2462 20.0418 23.621C20.0461 24.1607 20.0555 24.7 20.0659 25.2395C20.0662 25.4065 20.0664 25.5734 20.0667 25.7454C20.0926 26.7725 20.2217 27.326 20.9961 28.0686C21.2958 28.2684 21.2958 28.2684 21.6015 28.4722C21.165 29.4392 20.4794 30.1028 19.7474 30.856C19.6167 30.9984 19.486 31.1408 19.3513 31.2876C18.3744 32.2899 18.3744 32.2899 17.5103 32.36C16.4557 32.0019 15.4565 31.559 14.4502 31.083C14.2449 30.9877 14.0395 30.8923 13.8279 30.7941C13.324 30.5599 12.821 30.3241 12.3187 30.0866C12.0587 30.3429 11.7992 30.5997 11.5399 30.8568C11.3953 30.9997 11.2508 31.1427 11.1018 31.29C10.6758 31.7148 10.6758 31.7148 10.2503 32.2938C9.84166 32.7754 9.70344 32.833 9.08994 32.9118C8.59491 32.8062 8.59491 32.8062 8.0305 32.6343C5.89948 32.0683 3.17457 31.623 1.17722 32.7628C0.302773 33.3642 -0.21023 33.9161 -0.596402 34.9298C-0.729589 34.9298 -0.862777 34.9298 -1 34.9298C-0.877947 33.0583 0.054199 31.3575 1.42159 30.0866C3.48317 28.3761 5.8224 28.0653 8.42917 28.218C9.36877 28.3253 10.2878 28.5828 11.1845 28.879C11.6372 29.0268 11.6372 29.0268 12.3187 29.0776C13.4314 28.2263 14.1393 27.036 14.3367 25.6471C14.3778 24.9787 14.3933 24.3103 14.4077 23.6409C14.4125 23.4424 14.4174 23.2438 14.4224 23.0393C14.469 21.0422 14.4971 19.0449 14.5209 17.0474C14.5308 16.2374 14.5454 15.4277 14.5664 14.6178C14.588 13.7798 14.5982 12.9426 14.5985 12.1044C14.6005 11.8036 14.6067 11.5029 14.6173 11.2023C14.6596 9.93244 14.6751 8.79515 13.7797 7.80658C13.1971 7.23969 12.5743 6.74898 11.9151 6.27436C12.0349 5.61199 12.078 5.49781 12.638 5.05647C12.8531 4.92147 13.0682 4.78646 13.2899 4.64736C14.1546 4.10945 14.1546 4.10945 14.9571 3.4878C15.3457 3.24738 15.3457 3.24738 15.8258 3.24422C16.5394 3.52074 17.0157 3.98174 17.5529 4.50862C17.7563 4.70334 17.9599 4.89778 18.1638 5.09195C18.2525 5.17837 18.3412 5.2648 18.4326 5.35385C18.8041 5.7117 18.8041 5.7117 19.4098 6.08197C19.8101 6.41588 19.9672 6.60214 20.1008 7.11057C20.1467 7.64977 20.1547 8.17768 20.1495 8.71881C20.1536 9.01229 20.1536 9.01229 20.1579 9.3117C20.1654 9.93476 20.1646 10.5575 20.1637 11.1806C20.1673 11.6038 20.1715 12.027 20.1763 12.4501C20.1877 13.486 20.188 14.521 20.1889 15.5571C21.9203 15.5571 23.6518 15.5571 25.4357 15.5571C25.4393 14.5727 25.4386 13.5901 25.427 12.606C25.4244 12.2717 25.4242 11.9374 25.4266 11.6031C25.5084 9.73247 25.5084 9.73247 24.9312 8.01892C24.5735 7.71194 24.237 7.50205 23.8213 7.28336C23.5861 7.09474 23.3546 6.90147 23.1276 6.70318C22.9569 6.56167 22.7863 6.42016 22.6105 6.27436C22.6867 5.7902 22.7389 5.53319 23.1092 5.19989C23.2344 5.12343 23.3596 5.04697 23.4886 4.96819C23.6966 4.83962 23.6966 4.83962 23.9088 4.70845C24.0547 4.6217 24.2006 4.53494 24.351 4.44556C24.4922 4.35802 24.6335 4.27049 24.779 4.1803C25.4384 3.77846 26.091 3.41312 26.8041 3.11574C27.3389 2.89183 27.7634 2.6667 28.2356 2.33928C29.8175 1.32145 31.5586 1.00267 33.4209 1.00079Z" fill="#0A0A0B"/>
<path d="M10.3006 7.08154C10.4338 7.14814 10.5669 7.21473 10.7042 7.28334C10.7042 10.0137 10.7042 12.744 10.7042 15.5571C11.7031 15.5571 12.702 15.5571 13.7312 15.5571C13.933 16.3643 13.933 16.3643 13.7375 16.812C13.0347 17.859 12.4743 18.4822 11.3096 18.9877C11.1098 18.9877 10.91 18.9877 10.7042 18.9877C10.7135 19.1997 10.7229 19.4117 10.7326 19.6301C10.797 21.704 10.6726 23.3233 9.21591 24.9439C7.34157 26.656 7.34157 26.656 6.2646 26.656C5.94984 26.0265 6.03837 25.3586 6.04309 24.668C6.04338 24.5118 6.04366 24.3556 6.04396 24.1947C6.04509 23.695 6.04762 23.1954 6.05019 22.6957C6.0512 22.3573 6.05212 22.0189 6.05294 21.6804C6.05517 20.8501 6.05866 20.0198 6.0628 19.1895C5.84611 19.2051 5.62942 19.2207 5.40616 19.2367C5.11634 19.2565 4.82652 19.2762 4.53669 19.2959C4.32345 19.3114 4.32345 19.3114 4.1059 19.3273C2.86023 19.4102 1.65182 19.3421 0.412429 19.1895C0.172835 18.4707 0.311929 18.1971 0.626052 17.5294C1.10066 16.6353 1.61205 16.0325 2.57546 15.6564C3.58551 15.4385 4.63241 15.5154 5.6592 15.5571C5.64866 15.3082 5.64866 15.3082 5.63792 15.0542C5.5819 12.744 5.93774 10.8896 7.47539 9.09953C8.32088 8.33158 9.26966 7.58138 10.3006 7.08154Z" fill="#0A0A0B"/>
</g>
<defs>
<clipPath id="clip0_1481_555">
<rect width="35" height="35" fill="white"/>
</clipPath>
</defs>
</svg>
