<svg width="162" height="41" viewBox="0 0 162 41" fill="none" xmlns="http://www.w3.org/2000/svg">
<path d="M49.14 16L56.58 2.24H61.32L62.9 16H59.5L59.18 13.28H54.12L52.64 16H49.14ZM55.34 10.72H59L58.42 5.24H58.28L55.34 10.72ZM64.5211 16L67.4611 2.24H70.9611L68.6211 13.24H74.1211L73.5211 16H64.5211ZM75.3219 16L78.2619 2.24H85.1219C85.9219 2.24 86.5819 2.34667 87.1019 2.56C87.6352 2.76 88.0352 3.05333 88.3019 3.44C88.5819 3.81333 88.7219 4.28 88.7219 4.84C88.7219 5.04 88.7085 5.24 88.6819 5.44C88.6552 5.62667 88.6152 5.82 88.5619 6.02C88.3485 6.88667 87.9819 7.55333 87.4619 8.02C86.9419 8.47333 86.2552 8.78 85.4019 8.94V9.02C85.8419 9.11333 86.2085 9.26 86.5019 9.46C86.7952 9.64667 87.0152 9.89333 87.1619 10.2C87.3085 10.4933 87.3819 10.8667 87.3819 11.32C87.3819 11.4667 87.3752 11.6133 87.3619 11.76C87.3485 11.9067 87.3285 12.06 87.3019 12.22C87.2885 12.3667 87.2619 12.52 87.2219 12.68C87.1019 13.1867 86.9285 13.6467 86.7019 14.06C86.4885 14.4733 86.2019 14.8267 85.8419 15.12C85.4952 15.4 85.0485 15.62 84.5019 15.78C83.9685 15.9267 83.3219 16 82.5619 16H75.3219ZM79.3219 13.44H81.7019C82.1952 13.44 82.5819 13.4 82.8619 13.32C83.1419 13.2267 83.3552 13.06 83.5019 12.82C83.6485 12.58 83.7685 12.2467 83.8619 11.82C83.8885 11.6733 83.9085 11.5467 83.9219 11.44C83.9485 11.32 83.9619 11.2067 83.9619 11.1C83.9619 10.7533 83.8419 10.5133 83.6019 10.38C83.3619 10.2467 82.9619 10.18 82.4019 10.18H80.0219L79.3219 13.44ZM80.5019 7.92H82.8419C83.2952 7.92 83.6619 7.87333 83.9419 7.78C84.2219 7.68667 84.4419 7.52667 84.6019 7.3C84.7619 7.07333 84.8819 6.76667 84.9619 6.38C84.9885 6.23333 85.0085 6.10667 85.0219 6C85.0352 5.88 85.0419 5.76 85.0419 5.64C85.0419 5.30667 84.9285 5.08667 84.7019 4.98C84.4752 4.86 84.0752 4.8 83.5019 4.8H81.1619L80.5019 7.92ZM87.5384 16L94.9784 2.24H99.7184L101.298 16H97.8984L97.5784 13.28H92.5184L91.0384 16H87.5384ZM93.7384 10.72H97.3984L96.8184 5.24H96.6784L93.7384 10.72ZM102.92 16L105.86 2.24H112.46C113.473 2.24 114.253 2.34667 114.8 2.56C115.346 2.77333 115.733 3.08 115.96 3.48C116.186 3.88 116.3 4.37333 116.3 4.96C116.3 5.13333 116.286 5.32667 116.26 5.54C116.246 5.74 116.22 5.95333 116.18 6.18C116.14 6.40667 116.093 6.64 116.04 6.88C115.933 7.36 115.806 7.8 115.66 8.2C115.526 8.6 115.366 8.95333 115.18 9.26C114.993 9.56667 114.753 9.84 114.46 10.08C114.166 10.3067 113.8 10.4933 113.36 10.64L114.32 16H110.78L110.1 11.06C110.006 11.06 109.906 11.06 109.8 11.06C109.693 11.06 109.58 11.06 109.46 11.06H107.48L106.42 16H102.92ZM108 8.58H110.18C110.633 8.58 110.993 8.55333 111.26 8.5C111.54 8.43333 111.76 8.33333 111.92 8.2C112.08 8.06667 112.206 7.88 112.3 7.64C112.393 7.38667 112.48 7.07333 112.56 6.7C112.6 6.48667 112.633 6.29333 112.66 6.12C112.686 5.94667 112.7 5.79333 112.7 5.66C112.7 5.46 112.653 5.3 112.56 5.18C112.466 5.04667 112.293 4.95333 112.04 4.9C111.8 4.83333 111.46 4.8 111.02 4.8H108.8L108 8.58ZM116.494 16L119.434 2.24H124.134L125.334 10.36H125.494L130.134 2.24H134.894L131.954 16H128.614L130.514 7.08H130.354L125.334 16H123.014L121.814 7.08H121.654L119.754 16H116.494ZM140.214 16.16C139.64 16.16 139.027 16.1467 138.374 16.12C137.734 16.0933 137.107 16.0533 136.494 16C135.88 15.9467 135.34 15.8933 134.874 15.84L135.394 13.3C135.874 13.34 136.367 13.38 136.874 13.42C137.38 13.46 137.86 13.4933 138.314 13.52C138.78 13.5333 139.18 13.54 139.514 13.54C139.927 13.54 140.274 13.5333 140.554 13.52C140.847 13.5067 141.087 13.48 141.274 13.44C141.474 13.4 141.647 13.3467 141.794 13.28C141.887 13.2133 141.974 13.1267 142.054 13.02C142.134 12.9133 142.207 12.7933 142.274 12.66C142.34 12.5133 142.387 12.3667 142.414 12.22C142.454 12.06 142.48 11.9067 142.494 11.76C142.52 11.6 142.534 11.4667 142.534 11.36C142.534 11.1867 142.494 11.06 142.414 10.98C142.334 10.8867 142.174 10.8133 141.934 10.76C141.707 10.7067 141.36 10.64 140.894 10.56L138.114 10.14C137.407 10.0467 136.92 9.81333 136.654 9.44C136.387 9.05333 136.254 8.52667 136.254 7.86C136.254 7.59333 136.274 7.3 136.314 6.98C136.354 6.64667 136.414 6.3 136.494 5.94C136.694 5.1 136.96 4.42667 137.294 3.92C137.64 3.4 138.06 3.01333 138.554 2.76C139.06 2.49333 139.647 2.31333 140.314 2.22C140.98 2.12667 141.72 2.08 142.534 2.08C143.094 2.08 143.674 2.1 144.274 2.14C144.874 2.16667 145.434 2.20667 145.954 2.26C146.474 2.31333 146.907 2.38 147.254 2.46L146.734 4.94C146.374 4.9 145.96 4.86 145.494 4.82C145.04 4.78 144.567 4.75333 144.074 4.74C143.58 4.71333 143.12 4.7 142.694 4.7C142.334 4.7 142.027 4.71333 141.774 4.74C141.52 4.75333 141.3 4.78667 141.114 4.84C140.927 4.88 140.774 4.94 140.654 5.02C140.52 5.1 140.407 5.20667 140.314 5.34C140.22 5.46 140.14 5.6 140.074 5.76C140.02 5.92 139.98 6.08 139.954 6.24C139.94 6.4 139.934 6.56 139.934 6.72C139.934 6.96 140.02 7.12 140.194 7.2C140.367 7.26667 140.68 7.33333 141.134 7.4L143.754 7.78C144.194 7.84667 144.6 7.94667 144.974 8.08C145.347 8.21333 145.647 8.44667 145.874 8.78C146.1 9.1 146.214 9.58667 146.214 10.24C146.214 10.4 146.207 10.5733 146.194 10.76C146.18 10.9467 146.154 11.1467 146.114 11.36C146.087 11.5733 146.047 11.7933 145.994 12.02C145.78 12.98 145.5 13.74 145.154 14.3C144.82 14.8467 144.414 15.2533 143.934 15.52C143.454 15.7867 142.907 15.96 142.294 16.04C141.68 16.12 140.987 16.16 140.214 16.16Z" fill="#DFDFE4"/>
<path d="M49.844 33L49.196 20.616H51.212L51.662 30.39H51.788L56.684 20.616H58.772L59.546 30.39H59.654L64.208 20.616H66.332L60.392 33H57.944L57.116 23.82H57.008L52.292 33H49.844ZM71.0429 33.144C69.8189 33.144 68.8589 33.066 68.1629 32.91C67.4669 32.754 66.9749 32.478 66.6869 32.082C66.3989 31.686 66.2549 31.122 66.2549 30.39C66.2549 29.946 66.3029 29.43 66.3989 28.842C66.5069 28.242 66.6449 27.546 66.8129 26.754C67.0289 25.698 67.2329 24.804 67.4249 24.072C67.6169 23.328 67.8449 22.722 68.1089 22.254C68.3729 21.774 68.7149 21.408 69.1349 21.156C69.5549 20.892 70.0889 20.712 70.7369 20.616C71.3969 20.52 72.2189 20.472 73.2029 20.472C74.4269 20.472 75.3809 20.55 76.0649 20.706C76.7609 20.862 77.2529 21.144 77.5409 21.552C77.8289 21.948 77.9729 22.518 77.9729 23.262C77.9729 23.706 77.9249 24.222 77.8289 24.81C77.7449 25.386 77.6189 26.07 77.4509 26.862C77.2229 27.918 77.0069 28.818 76.8029 29.562C76.5989 30.294 76.3649 30.894 76.1009 31.362C75.8369 31.83 75.4949 32.196 75.0749 32.46C74.6669 32.712 74.1389 32.892 73.4909 33C72.8429 33.096 72.0269 33.144 71.0429 33.144ZM71.1329 31.47C71.7449 31.47 72.2489 31.452 72.6449 31.416C73.0529 31.38 73.3889 31.29 73.6529 31.146C73.9169 31.002 74.1389 30.768 74.3189 30.444C74.4989 30.108 74.6669 29.646 74.8229 29.058C74.9909 28.47 75.1709 27.72 75.3629 26.808C75.5429 26.052 75.6689 25.41 75.7409 24.882C75.8249 24.342 75.8669 23.898 75.8669 23.55C75.8669 23.094 75.7769 22.77 75.5969 22.578C75.4169 22.374 75.1229 22.254 74.7149 22.218C74.3189 22.17 73.7849 22.146 73.1129 22.146C72.5009 22.146 71.9909 22.164 71.5829 22.2C71.1749 22.236 70.8329 22.326 70.5569 22.47C70.2929 22.614 70.0709 22.854 69.8909 23.19C69.7109 23.514 69.5429 23.97 69.3869 24.558C69.2309 25.146 69.0569 25.896 68.8649 26.808C68.7569 27.312 68.6609 27.774 68.5769 28.194C68.5049 28.602 68.4449 28.962 68.3969 29.274C68.3489 29.574 68.3249 29.844 68.3249 30.084C68.3249 30.528 68.4149 30.852 68.5949 31.056C68.7869 31.248 69.0869 31.368 69.4949 31.416C69.9029 31.452 70.4489 31.47 71.1329 31.47ZM79.2564 33L81.9024 20.616H87.5904C88.4664 20.616 89.1384 20.718 89.6064 20.922C90.0864 21.114 90.4224 21.39 90.6144 21.75C90.8064 22.11 90.9024 22.542 90.9024 23.046C90.9024 23.19 90.8904 23.346 90.8664 23.514C90.8544 23.682 90.8304 23.862 90.7944 24.054C90.7704 24.234 90.7344 24.414 90.6864 24.594C90.5784 25.05 90.4524 25.464 90.3084 25.836C90.1764 26.196 90.0144 26.514 89.8224 26.79C89.6424 27.066 89.4084 27.3 89.1204 27.492C88.8324 27.684 88.4784 27.834 88.0584 27.942L89.0664 33H86.9424L86.1324 28.194C86.0004 28.194 85.8624 28.2 85.7184 28.212C85.5864 28.212 85.4484 28.212 85.3044 28.212H82.3344L81.3084 33H79.2564ZM82.6764 26.592H85.8264C86.3784 26.592 86.8224 26.55 87.1584 26.466C87.4944 26.382 87.7524 26.256 87.9324 26.088C88.1244 25.908 88.2684 25.68 88.3644 25.404C88.4724 25.128 88.5624 24.804 88.6344 24.432C88.6944 24.216 88.7364 24.018 88.7604 23.838C88.7844 23.658 88.7964 23.496 88.7964 23.352C88.7964 23.112 88.7364 22.908 88.6164 22.74C88.5084 22.572 88.3104 22.452 88.0224 22.38C87.7464 22.296 87.3564 22.254 86.8524 22.254H83.6124L82.6764 26.592ZM91.7896 33L94.4356 20.616H96.4876L95.3716 25.89H97.3336L102.464 20.616H104.84L98.7736 26.772L102.248 33H99.9976L96.9736 27.528H95.0116L93.8416 33H91.7896ZM109.02 33.144C108.504 33.144 107.958 33.132 107.382 33.108C106.818 33.084 106.26 33.048 105.708 33C105.156 32.964 104.658 32.922 104.214 32.874L104.556 31.236C104.976 31.272 105.426 31.308 105.906 31.344C106.386 31.38 106.848 31.41 107.292 31.434C107.748 31.458 108.138 31.47 108.462 31.47C108.87 31.47 109.224 31.464 109.524 31.452C109.824 31.44 110.088 31.41 110.316 31.362C110.544 31.314 110.748 31.242 110.928 31.146C111.084 31.062 111.216 30.942 111.324 30.786C111.432 30.63 111.528 30.45 111.612 30.246C111.696 30.042 111.762 29.838 111.81 29.634C111.858 29.418 111.894 29.22 111.918 29.04C111.942 28.848 111.954 28.692 111.954 28.572C111.954 28.368 111.906 28.218 111.81 28.122C111.714 28.014 111.552 27.936 111.324 27.888C111.096 27.84 110.784 27.792 110.388 27.744L107.472 27.33C106.716 27.234 106.2 27.018 105.924 26.682C105.66 26.334 105.528 25.866 105.528 25.278C105.528 25.062 105.54 24.822 105.564 24.558C105.6 24.294 105.648 24.024 105.708 23.748C105.876 23.028 106.104 22.452 106.392 22.02C106.68 21.588 107.034 21.264 107.454 21.048C107.886 20.82 108.384 20.67 108.948 20.598C109.512 20.514 110.148 20.472 110.856 20.472C111.372 20.472 111.894 20.484 112.422 20.508C112.95 20.532 113.448 20.568 113.916 20.616C114.384 20.664 114.774 20.718 115.086 20.778L114.762 22.362C114.426 22.314 114.042 22.278 113.61 22.254C113.178 22.218 112.74 22.194 112.296 22.182C111.864 22.158 111.45 22.146 111.054 22.146C110.646 22.146 110.286 22.158 109.974 22.182C109.674 22.206 109.416 22.242 109.2 22.29C108.984 22.338 108.792 22.41 108.624 22.506C108.456 22.602 108.306 22.74 108.174 22.92C108.054 23.088 107.952 23.28 107.868 23.496C107.796 23.712 107.742 23.934 107.706 24.162C107.682 24.378 107.67 24.582 107.67 24.774C107.67 25.062 107.76 25.254 107.94 25.35C108.132 25.446 108.468 25.524 108.948 25.584L111.756 25.926C112.212 25.986 112.614 26.076 112.962 26.196C113.322 26.304 113.604 26.502 113.808 26.79C114.012 27.066 114.114 27.486 114.114 28.05C114.114 28.182 114.108 28.332 114.096 28.5C114.084 28.668 114.06 28.848 114.024 29.04C114 29.22 113.964 29.418 113.916 29.634C113.736 30.45 113.496 31.098 113.196 31.578C112.896 32.058 112.542 32.412 112.134 32.64C111.726 32.856 111.264 32.994 110.748 33.054C110.232 33.114 109.656 33.144 109.02 33.144ZM115.942 33L118.588 20.616H124.078C124.942 20.616 125.614 20.718 126.094 20.922C126.574 21.126 126.91 21.414 127.102 21.786C127.294 22.158 127.39 22.602 127.39 23.118C127.39 23.346 127.366 23.598 127.318 23.874C127.282 24.138 127.234 24.408 127.174 24.684C127.066 25.236 126.922 25.752 126.742 26.232C126.574 26.7 126.34 27.114 126.04 27.474C125.74 27.822 125.332 28.092 124.816 28.284C124.3 28.476 123.634 28.572 122.818 28.572H118.948L117.994 33H115.942ZM119.308 26.934H122.278C122.83 26.934 123.268 26.892 123.592 26.808C123.928 26.712 124.192 26.574 124.384 26.394C124.576 26.202 124.726 25.956 124.834 25.656C124.942 25.356 125.044 25.002 125.14 24.594C125.188 24.354 125.224 24.138 125.248 23.946C125.284 23.742 125.302 23.562 125.302 23.406C125.302 23.142 125.242 22.926 125.122 22.758C125.014 22.578 124.81 22.452 124.51 22.38C124.222 22.296 123.82 22.254 123.304 22.254H120.298L119.308 26.934ZM125.878 33L133.15 20.616H135.796L137.812 33H135.778L135.256 29.904H129.802L127.966 33H125.878ZM130.666 28.266H135.058L134.14 22.578H134.032L130.666 28.266ZM144.707 33.144C143.639 33.144 142.769 33.066 142.097 32.91C141.437 32.742 140.951 32.442 140.639 32.01C140.327 31.578 140.171 30.966 140.171 30.174C140.171 29.754 140.213 29.268 140.297 28.716C140.381 28.164 140.501 27.528 140.657 26.808C140.897 25.728 141.131 24.816 141.359 24.072C141.599 23.328 141.863 22.722 142.151 22.254C142.439 21.774 142.793 21.408 143.213 21.156C143.645 20.904 144.167 20.73 144.779 20.634C145.391 20.526 146.135 20.472 147.011 20.472C147.371 20.472 147.755 20.484 148.163 20.508C148.571 20.532 148.955 20.568 149.315 20.616C149.675 20.652 149.987 20.694 150.251 20.742L149.909 22.326C149.585 22.278 149.267 22.242 148.955 22.218C148.643 22.194 148.355 22.176 148.091 22.164C147.827 22.152 147.593 22.146 147.389 22.146C146.705 22.146 146.129 22.17 145.661 22.218C145.193 22.266 144.809 22.374 144.509 22.542C144.209 22.71 143.957 22.968 143.753 23.316C143.561 23.652 143.387 24.108 143.231 24.684C143.075 25.248 142.907 25.956 142.727 26.808C142.583 27.492 142.469 28.08 142.385 28.572C142.301 29.052 142.259 29.466 142.259 29.814C142.259 30.306 142.361 30.672 142.565 30.912C142.769 31.152 143.099 31.308 143.555 31.38C144.011 31.44 144.629 31.47 145.409 31.47C145.817 31.47 146.267 31.452 146.759 31.416C147.263 31.38 147.701 31.338 148.073 31.29L147.731 32.91C147.467 32.958 147.161 33 146.813 33.036C146.465 33.072 146.111 33.096 145.751 33.108C145.391 33.132 145.043 33.144 144.707 33.144ZM150.518 33L153.164 20.616H161.696L161.336 22.29H154.874L154.082 25.926H159.662L159.32 27.564H153.74L152.93 31.326H159.41L159.05 33H150.518Z" fill="#CCF96D"/>
<path d="M8.05778 5.81395C8.05778 5.36442 8.4259 5 8.88 5H14.8C15.2541 5 15.6222 5.36442 15.6222 5.81395V11.6744C15.6222 12.124 15.2541 12.4884 14.8 12.4884H8.88C8.4259 12.4884 8.05778 12.124 8.05778 11.6744V5.81395Z" fill="#D9D9D9"/>
<path d="M29.4356 19.9767C29.4356 19.5272 29.8037 19.1628 30.2578 19.1628H36.1778C36.6319 19.1628 37 19.5272 37 19.9767V25.8372C37 26.2867 36.6319 26.6512 36.1778 26.6512H30.2578C29.8037 26.6512 29.4356 26.2867 29.4356 25.8372V19.9767Z" fill="#D9D9D9"/>
<path d="M30.2578 26.3256C30.2578 25.876 29.8897 25.5116 29.4356 25.5116H7.23556C6.78146 25.5116 6.41333 25.876 6.41333 26.3256V32.186C6.41333 32.6356 6.78145 33 7.23556 33H29.4356C29.8897 33 30.2578 32.6356 30.2578 32.186V26.3256Z" fill="#D9D9D9"/>
<path d="M7.23556 19.9767C7.23556 19.5272 6.86743 19.1628 6.41333 19.1628H0.822222C0.368122 19.1628 0 19.5272 0 19.9767V25.8372C0 26.2867 0.368121 26.6512 0.822222 26.6512H6.41333C6.86743 26.6512 7.23556 26.2867 7.23556 25.8372V19.9767Z" fill="#D9D9D9"/>
<path d="M21.5422 5.81395C21.5422 5.36442 21.9103 5 22.3644 5H28.2844C28.7385 5 29.1067 5.36442 29.1067 5.81395V11.6744C29.1067 12.124 28.7385 12.4884 28.2844 12.4884H22.3644C21.9103 12.4884 21.5422 12.124 21.5422 11.6744V5.81395Z" fill="#D9D9D9"/>
</svg>
