<svg width="37" height="28" viewBox="0 0 37 28" fill="none" xmlns="http://www.w3.org/2000/svg">
<path d="M8.05778 0.813953C8.05778 0.364419 8.4259 0 8.88 0H14.8C15.2541 0 15.6222 0.364419 15.6222 0.813954V6.67442C15.6222 7.12395 15.2541 7.48837 14.8 7.48837H8.88C8.4259 7.48837 8.05778 7.12395 8.05778 6.67442V0.813953Z" fill="#D9D9D9"/>
<path d="M29.4356 14.9767C29.4356 14.5272 29.8037 14.1628 30.2578 14.1628H36.1778C36.6319 14.1628 37 14.5272 37 14.9767V20.8372C37 21.2867 36.6319 21.6512 36.1778 21.6512H30.2578C29.8037 21.6512 29.4356 21.2867 29.4356 20.8372V14.9767Z" fill="#D9D9D9"/>
<path d="M30.2578 21.3256C30.2578 20.876 29.8897 20.5116 29.4356 20.5116H7.23556C6.78146 20.5116 6.41333 20.876 6.41333 21.3256V27.186C6.41333 27.6356 6.78145 28 7.23556 28H29.4356C29.8897 28 30.2578 27.6356 30.2578 27.186V21.3256Z" fill="#D9D9D9"/>
<path d="M7.23556 14.9767C7.23556 14.5272 6.86743 14.1628 6.41333 14.1628H0.822222C0.368122 14.1628 0 14.5272 0 14.9767V20.8372C0 21.2867 0.368121 21.6512 0.822222 21.6512H6.41333C6.86743 21.6512 7.23556 21.2867 7.23556 20.8372V14.9767Z" fill="#D9D9D9"/>
<path d="M21.5422 0.813953C21.5422 0.364419 21.9103 0 22.3644 0H28.2844C28.7385 0 29.1067 0.364419 29.1067 0.813954V6.67442C29.1067 7.12395 28.7385 7.48837 28.2844 7.48837H22.3644C21.9103 7.48837 21.5422 7.12395 21.5422 6.67442V0.813953Z" fill="#D9D9D9"/>
</svg>
