<svg width="1440" height="851" viewBox="0 0 1440 851" fill="none" xmlns="http://www.w3.org/2000/svg">
<line y1="90.5" x2="1440" y2="90.5" stroke="#232323" stroke-dasharray="3 3"/>
<line x1="947" y1="168.5" x2="1308" y2="168.5" stroke="#232323" stroke-dasharray="3 3"/>
<line x1="947.5" y1="91" x2="947.5" y2="347" stroke="#232323" stroke-dasharray="3 3"/>
<line x1="482.5" y1="347" x2="482.5" y2="449" stroke="#232323" stroke-dasharray="3 3"/>
<line x1="791.5" y1="588" x2="791.5" y2="663" stroke="#232323" stroke-dasharray="3 3"/>
<line x1="906.5" y1="663" x2="906.5" y2="775" stroke="#232323" stroke-dasharray="3 3"/>
<line x1="532.5" y1="663" x2="532.5" y2="775" stroke="#232323" stroke-dasharray="3 3"/>
<line x1="1042.5" y1="588" x2="1042.5" y2="663" stroke="#232323" stroke-dasharray="3 3"/>
<line x1="132" y1="346.5" x2="1308" y2="346.5" stroke="#232323" stroke-dasharray="3 3"/>
<line y1="444.5" x2="1440" y2="444.5" stroke="#232323" stroke-dasharray="3 3"/>
<line x1="132" y1="587.5" x2="1308" y2="587.5" stroke="#232323" stroke-dasharray="3 3"/>
<line y1="662.5" x2="1440" y2="662.5" stroke="#232323" stroke-dasharray="3 3"/>
<line x1="132" y1="774.5" x2="1308" y2="774.5" stroke="#232323" stroke-dasharray="3 3"/>
<line y1="662.5" x2="1440" y2="662.5" stroke="#232323" stroke-dasharray="3 3"/>
<line x1="132" y1="774.5" x2="1308" y2="774.5" stroke="#232323" stroke-dasharray="3 3"/>
<line x1="132.5" y1="54" x2="132.5" y2="803" stroke="#232323" stroke-dasharray="3 3"/>
<line x1="1308.5" y1="54" x2="1308.5" y2="803" stroke="#232323" stroke-dasharray="3 3"/>
<circle cx="132" cy="347" r="48.5" stroke="#232323" stroke-dasharray="2 2"/>
<circle cx="1308" cy="396" r="48.5" stroke="#232323" stroke-dasharray="2 2"/>
</svg>
