<svg width="22" height="22" viewBox="0 0 22 22" fill="none" xmlns="http://www.w3.org/2000/svg">
<path d="M17.6667 19C17.6667 19.7363 18.2636 20.3333 19 20.3333C19.7364 20.3333 20.3333 19.7363 20.3333 19C20.3333 18.2636 19.7364 17.6666 19 17.6666C18.2636 17.6666 17.6667 18.2636 17.6667 19Z" stroke="white" stroke-width="2" stroke-linecap="round" stroke-linejoin="round"/>
<path d="M9.66666 19C9.66666 19.7363 10.2636 20.3333 11 20.3333C11.7364 20.3333 12.3333 19.7363 12.3333 19C12.3333 18.2636 11.7364 17.6666 11 17.6666C10.2636 17.6666 9.66666 18.2636 9.66666 19Z" stroke="white" stroke-width="2" stroke-linecap="round" stroke-linejoin="round"/>
<path d="M1.66666 19C1.66666 19.7363 2.26361 20.3333 2.99999 20.3333C3.73637 20.3333 4.33332 19.7363 4.33332 19C4.33332 18.2636 3.73637 17.6666 2.99999 17.6666C2.26361 17.6666 1.66666 18.2636 1.66666 19Z" stroke="white" stroke-width="2" stroke-linecap="round" stroke-linejoin="round"/>
<path d="M17.6667 11C17.6667 11.7363 18.2636 12.3333 19 12.3333C19.7364 12.3333 20.3333 11.7363 20.3333 11C20.3333 10.2636 19.7364 9.66663 19 9.66663C18.2636 9.66663 17.6667 10.2636 17.6667 11Z" stroke="white" stroke-width="2" stroke-linecap="round" stroke-linejoin="round"/>
<path d="M9.66666 11C9.66666 11.7363 10.2636 12.3333 11 12.3333C11.7364 12.3333 12.3333 11.7363 12.3333 11C12.3333 10.2636 11.7364 9.66663 11 9.66663C10.2636 9.66663 9.66666 10.2636 9.66666 11Z" stroke="white" stroke-width="2" stroke-linecap="round" stroke-linejoin="round"/>
<path d="M1.66666 11C1.66666 11.7363 2.26361 12.3333 2.99999 12.3333C3.73637 12.3333 4.33332 11.7363 4.33332 11C4.33332 10.2636 3.73637 9.66663 2.99999 9.66663C2.26361 9.66663 1.66666 10.2636 1.66666 11Z" stroke="white" stroke-width="2" stroke-linecap="round" stroke-linejoin="round"/>
<path d="M17.6667 2.99996C17.6667 3.73634 18.2636 4.33329 19 4.33329C19.7364 4.33329 20.3333 3.73634 20.3333 2.99996C20.3333 2.26358 19.7364 1.66663 19 1.66663C18.2636 1.66663 17.6667 2.26358 17.6667 2.99996Z" stroke="white" stroke-width="2" stroke-linecap="round" stroke-linejoin="round"/>
<path d="M9.66666 2.99996C9.66666 3.73634 10.2636 4.33329 11 4.33329C11.7364 4.33329 12.3333 3.73634 12.3333 2.99996C12.3333 2.26358 11.7364 1.66663 11 1.66663C10.2636 1.66663 9.66666 2.26358 9.66666 2.99996Z" stroke="white" stroke-width="2" stroke-linecap="round" stroke-linejoin="round"/>
<path d="M1.66666 2.99996C1.66666 3.73634 2.26361 4.33329 2.99999 4.33329C3.73637 4.33329 4.33332 3.73634 4.33332 2.99996C4.33332 2.26358 3.73637 1.66663 2.99999 1.66663C2.26361 1.66663 1.66666 2.26358 1.66666 2.99996Z" stroke="white" stroke-width="2" stroke-linecap="round" stroke-linejoin="round"/>
</svg>
