<svg width="200" height="135" viewBox="0 0 200 135" fill="none" xmlns="http://www.w3.org/2000/svg">
<g clip-path="url(#clip0_1295_772)">
<path d="M66.8548 134.491L199.549 134.491L199.549 0.494431L66.8548 0.494431L66.8548 134.491Z" stroke="#A8A4A4" stroke-miterlimit="10"/>
<path d="M133.191 134.426C169.814 134.426 199.503 104.446 199.503 67.4641C199.503 30.4819 169.814 0.501831 133.191 0.501831C96.5684 0.501831 66.8797 30.4819 66.8797 67.4641C66.8797 104.446 96.5684 134.426 133.191 134.426Z" stroke="#A8A4A4" stroke-miterlimit="10"/>
<path d="M0.489594 134.491L133.184 134.491L133.184 0.494431L0.489594 0.494431L0.489594 134.491Z" stroke="#A8A4A4" stroke-miterlimit="10"/>
<path d="M66.8087 134.426C103.432 134.426 133.12 104.446 133.12 67.4641C133.12 30.4819 103.432 0.501831 66.8087 0.501831C30.1857 0.501831 0.496979 30.4819 0.496979 67.4641C0.496979 104.446 30.1857 134.426 66.8087 134.426Z" stroke="#A8A4A4" stroke-miterlimit="10"/>
<path d="M133.194 134.445L199.511 67.4767L133.194 0.508723L66.8767 67.4767L133.194 134.445Z" stroke="#A8A4A4" stroke-miterlimit="10"/>
<path d="M66.8362 134.464L133.153 67.4962L66.8362 0.528254L0.518895 67.4962L66.8362 134.464Z" stroke="#A8A4A4" stroke-miterlimit="10"/>
<path d="M0.496979 0.501831L133.191 134.498" stroke="#A8A4A4" stroke-miterlimit="10"/>
<path d="M199.503 0.501831L66.8087 134.498" stroke="#A8A4A4" stroke-miterlimit="10"/>
<path d="M0.496979 134.498L133.191 0.501831" stroke="#A8A4A4" stroke-miterlimit="10"/>
<path d="M199.503 134.498L66.8087 0.501831" stroke="#A8A4A4" stroke-miterlimit="10"/>
</g>
<defs>
<clipPath id="clip0_1295_772">
<rect width="200" height="135" fill="white"/>
</clipPath>
</defs>
</svg>
