<svg width="1440" height="60" viewBox="0 0 1440 60" fill="none" xmlns="http://www.w3.org/2000/svg">
<g style="mix-blend-mode:luminosity" clip-path="url(#clip0_1295_327)">
<rect width="1440" height="28" transform="translate(-0.133789 31.8668) rotate(-1.26247)" fill="#A0A0A0" fill-opacity="0.14"/>
<path d="M4.17398 47.3069L3.83179 31.7794" stroke="black" stroke-miterlimit="10"/>
<path d="M123.14 44.6851L122.798 29.1577" stroke="black" stroke-miterlimit="10"/>
<path d="M11.4382 39.3793L11.2671 31.6155" stroke="black" stroke-miterlimit="10"/>
<path d="M18.8735 39.2155L18.7024 31.4517" stroke="black" stroke-miterlimit="10"/>
<path d="M26.309 39.0516L26.1379 31.2878" stroke="black" stroke-miterlimit="10"/>
<path d="M41.1796 38.7239L41.0085 30.9601" stroke="black" stroke-miterlimit="10"/>
<path d="M48.6149 38.56L48.4438 30.7963" stroke="black" stroke-miterlimit="10"/>
<path d="M56.0505 38.3961L55.8794 30.6324" stroke="black" stroke-miterlimit="10"/>
<path d="M70.9211 38.0684L70.75 30.3047" stroke="black" stroke-miterlimit="10"/>
<path d="M78.3564 37.9045L78.1853 30.1408" stroke="black" stroke-miterlimit="10"/>
<path d="M85.7917 37.7407L85.6206 29.977" stroke="black" stroke-miterlimit="10"/>
<path d="M100.663 37.413L100.491 29.6492" stroke="black" stroke-miterlimit="10"/>
<path d="M108.098 37.2492L107.927 29.4854" stroke="black" stroke-miterlimit="10"/>
<path d="M115.533 37.0853L115.362 29.3215" stroke="black" stroke-miterlimit="10"/>
<path d="M63.6087 43.8091L63.3147 30.4686" stroke="black" stroke-miterlimit="10"/>
<path d="M93.2995 40.8573L93.0562 29.8131" stroke="black" stroke-miterlimit="10"/>
<path d="M33.8166 42.1682L33.5732 31.124" stroke="black" stroke-miterlimit="10"/>
<path d="M242.105 42.0634L241.763 26.5359" stroke="black" stroke-miterlimit="10"/>
<path d="M130.404 36.7576L130.233 28.9938" stroke="black" stroke-miterlimit="10"/>
<path d="M137.839 36.5937L137.668 28.83" stroke="black" stroke-miterlimit="10"/>
<path d="M145.275 36.4298L145.104 28.6661" stroke="black" stroke-miterlimit="10"/>
<path d="M160.145 36.1021L159.974 28.3384" stroke="black" stroke-miterlimit="10"/>
<path d="M167.581 35.9382L167.41 28.1745" stroke="black" stroke-miterlimit="10"/>
<path d="M175.016 35.7744L174.845 28.0106" stroke="black" stroke-miterlimit="10"/>
<path d="M189.887 35.4467L189.716 27.6829" stroke="black" stroke-miterlimit="10"/>
<path d="M197.322 35.2828L197.151 27.519" stroke="black" stroke-miterlimit="10"/>
<path d="M204.758 35.119L204.586 27.3552" stroke="black" stroke-miterlimit="10"/>
<path d="M219.628 34.7912L219.457 27.0275" stroke="black" stroke-miterlimit="10"/>
<path d="M227.064 34.6274L226.893 26.8636" stroke="black" stroke-miterlimit="10"/>
<path d="M234.499 34.4635L234.328 26.6998" stroke="black" stroke-miterlimit="10"/>
<path d="M182.574 41.1873L182.28 27.8468" stroke="black" stroke-miterlimit="10"/>
<path d="M212.265 38.2355L212.022 27.1913" stroke="black" stroke-miterlimit="10"/>
<path d="M152.782 39.5464L152.539 28.5022" stroke="black" stroke-miterlimit="10"/>
<path d="M361.071 39.4417L360.729 23.9142" stroke="black" stroke-miterlimit="10"/>
<path d="M249.37 34.1358L249.198 26.3721" stroke="black" stroke-miterlimit="10"/>
<path d="M256.805 33.9719L256.634 26.2082" stroke="black" stroke-miterlimit="10"/>
<path d="M264.24 33.8081L264.069 26.0443" stroke="black" stroke-miterlimit="10"/>
<path d="M279.111 33.4804L278.94 25.7166" stroke="black" stroke-miterlimit="10"/>
<path d="M286.547 33.3165L286.375 25.5527" stroke="black" stroke-miterlimit="10"/>
<path d="M293.982 33.1527L293.811 25.3889" stroke="black" stroke-miterlimit="10"/>
<path d="M308.852 32.8249L308.681 25.0612" stroke="black" stroke-miterlimit="10"/>
<path d="M316.288 32.6611L316.117 24.8973" stroke="black" stroke-miterlimit="10"/>
<path d="M323.723 32.4972L323.552 24.7335" stroke="black" stroke-miterlimit="10"/>
<path d="M338.594 32.1695L338.423 24.4058" stroke="black" stroke-miterlimit="10"/>
<path d="M346.029 32.0056L345.858 24.2419" stroke="black" stroke-miterlimit="10"/>
<path d="M353.465 31.8417L353.294 24.078" stroke="black" stroke-miterlimit="10"/>
<path d="M301.54 38.5655L301.246 25.225" stroke="black" stroke-miterlimit="10"/>
<path d="M331.231 35.6138L330.988 24.5696" stroke="black" stroke-miterlimit="10"/>
<path d="M271.748 36.9247L271.505 25.8805" stroke="black" stroke-miterlimit="10"/>
<path d="M480.037 36.8199L479.695 21.2924" stroke="black" stroke-miterlimit="10"/>
<path d="M368.335 31.514L368.164 23.7503" stroke="black" stroke-miterlimit="10"/>
<path d="M375.771 31.3502L375.6 23.5864" stroke="black" stroke-miterlimit="10"/>
<path d="M383.206 31.1863L383.035 23.4226" stroke="black" stroke-miterlimit="10"/>
<path d="M398.077 30.8586L397.906 23.0948" stroke="black" stroke-miterlimit="10"/>
<path d="M405.512 30.6948L405.341 22.931" stroke="black" stroke-miterlimit="10"/>
<path d="M412.947 30.5309L412.776 22.7672" stroke="black" stroke-miterlimit="10"/>
<path d="M427.818 30.2031L427.647 22.4394" stroke="black" stroke-miterlimit="10"/>
<path d="M435.254 30.0393L435.083 22.2756" stroke="black" stroke-miterlimit="10"/>
<path d="M442.689 29.8754L442.518 22.1117" stroke="black" stroke-miterlimit="10"/>
<path d="M457.56 29.5477L457.389 21.784" stroke="black" stroke-miterlimit="10"/>
<path d="M464.995 29.3839L464.824 21.6201" stroke="black" stroke-miterlimit="10"/>
<path d="M472.43 29.22L472.259 21.4562" stroke="black" stroke-miterlimit="10"/>
<path d="M420.506 35.9438L420.212 22.6033" stroke="black" stroke-miterlimit="10"/>
<path d="M450.197 32.992L449.953 21.9478" stroke="black" stroke-miterlimit="10"/>
<path d="M390.714 34.3029L390.47 23.2587" stroke="black" stroke-miterlimit="10"/>
<path d="M599.003 34.1981L598.66 18.6707" stroke="black" stroke-miterlimit="10"/>
<path d="M487.301 28.8923L487.13 21.1285" stroke="black" stroke-miterlimit="10"/>
<path d="M494.737 28.7284L494.565 20.9647" stroke="black" stroke-miterlimit="10"/>
<path d="M502.172 28.5646L502.001 20.8008" stroke="black" stroke-miterlimit="10"/>
<path d="M517.043 28.2368L516.872 20.4731" stroke="black" stroke-miterlimit="10"/>
<path d="M524.478 28.073L524.307 20.3093" stroke="black" stroke-miterlimit="10"/>
<path d="M531.913 27.9091L531.742 20.1454" stroke="black" stroke-miterlimit="10"/>
<path d="M546.784 27.5814L546.613 19.8177" stroke="black" stroke-miterlimit="10"/>
<path d="M554.219 27.4175L554.048 19.6538" stroke="black" stroke-miterlimit="10"/>
<path d="M561.655 27.2537L561.484 19.4899" stroke="black" stroke-miterlimit="10"/>
<path d="M576.525 26.926L576.354 19.1622" stroke="black" stroke-miterlimit="10"/>
<path d="M583.961 26.7621L583.79 18.9984" stroke="black" stroke-miterlimit="10"/>
<path d="M591.396 26.5983L591.225 18.8345" stroke="black" stroke-miterlimit="10"/>
<path d="M539.471 33.322L539.177 19.9815" stroke="black" stroke-miterlimit="10"/>
<path d="M569.162 30.3703L568.919 19.3261" stroke="black" stroke-miterlimit="10"/>
<path d="M509.679 31.6812L509.436 20.637" stroke="black" stroke-miterlimit="10"/>
<path d="M717.968 31.5764L717.626 16.0489" stroke="black" stroke-miterlimit="10"/>
<path d="M606.267 26.2705L606.096 18.5068" stroke="black" stroke-miterlimit="10"/>
<path d="M613.702 26.1067L613.531 18.343" stroke="black" stroke-miterlimit="10"/>
<path d="M621.138 25.9428L620.967 18.1791" stroke="black" stroke-miterlimit="10"/>
<path d="M636.008 25.6151L635.837 17.8514" stroke="black" stroke-miterlimit="10"/>
<path d="M643.444 25.4512L643.272 17.6875" stroke="black" stroke-miterlimit="10"/>
<path d="M650.879 25.2874L650.708 17.5236" stroke="black" stroke-miterlimit="10"/>
<path d="M665.75 24.9597L665.579 17.1959" stroke="black" stroke-miterlimit="10"/>
<path d="M673.185 24.7958L673.014 17.032" stroke="black" stroke-miterlimit="10"/>
<path d="M680.62 24.632L680.449 16.8682" stroke="black" stroke-miterlimit="10"/>
<path d="M695.491 24.3042L695.32 16.5405" stroke="black" stroke-miterlimit="10"/>
<path d="M702.926 24.1403L702.755 16.3766" stroke="black" stroke-miterlimit="10"/>
<path d="M710.362 23.9765L710.191 16.2128" stroke="black" stroke-miterlimit="10"/>
<path d="M658.437 30.7003L658.143 17.3598" stroke="black" stroke-miterlimit="10"/>
<path d="M688.128 27.7485L687.885 16.7043" stroke="black" stroke-miterlimit="10"/>
<path d="M628.645 29.0594L628.402 18.0152" stroke="black" stroke-miterlimit="10"/>
<path d="M836.934 28.9546L836.592 13.4271" stroke="black" stroke-miterlimit="10"/>
<path d="M725.233 23.6487L725.062 15.885" stroke="black" stroke-miterlimit="10"/>
<path d="M732.668 23.4849L732.497 15.7212" stroke="black" stroke-miterlimit="10"/>
<path d="M740.103 23.3211L739.932 15.5573" stroke="black" stroke-miterlimit="10"/>
<path d="M754.974 22.9934L754.803 15.2296" stroke="black" stroke-miterlimit="10"/>
<path d="M762.409 22.8295L762.238 15.0657" stroke="black" stroke-miterlimit="10"/>
<path d="M769.845 22.6656L769.674 14.9019" stroke="black" stroke-miterlimit="10"/>
<path d="M784.716 22.3379L784.544 14.5742" stroke="black" stroke-miterlimit="10"/>
<path d="M792.151 22.174L791.98 14.4103" stroke="black" stroke-miterlimit="10"/>
<path d="M799.586 22.0102L799.415 14.2465" stroke="black" stroke-miterlimit="10"/>
<path d="M814.457 21.6824L814.286 13.9187" stroke="black" stroke-miterlimit="10"/>
<path d="M821.892 21.5186L821.721 13.7549" stroke="black" stroke-miterlimit="10"/>
<path d="M829.328 21.3547L829.156 13.591" stroke="black" stroke-miterlimit="10"/>
<path d="M777.403 28.0785L777.109 14.738" stroke="black" stroke-miterlimit="10"/>
<path d="M807.094 25.1268L806.85 14.0826" stroke="black" stroke-miterlimit="10"/>
<path d="M747.611 26.4376L747.368 15.3934" stroke="black" stroke-miterlimit="10"/>
<path d="M955.9 26.3329L955.558 10.8054" stroke="black" stroke-miterlimit="10"/>
<path d="M844.198 21.027L844.027 13.2633" stroke="black" stroke-miterlimit="10"/>
<path d="M851.634 20.8632L851.463 13.0994" stroke="black" stroke-miterlimit="10"/>
<path d="M859.069 20.6993L858.898 12.9355" stroke="black" stroke-miterlimit="10"/>
<path d="M873.94 20.3716L873.769 12.6078" stroke="black" stroke-miterlimit="10"/>
<path d="M881.375 20.2077L881.204 12.444" stroke="black" stroke-miterlimit="10"/>
<path d="M888.811 20.0439L888.639 12.2802" stroke="black" stroke-miterlimit="10"/>
<path d="M903.681 19.7161L903.51 11.9524" stroke="black" stroke-miterlimit="10"/>
<path d="M911.116 19.5523L910.945 11.7886" stroke="black" stroke-miterlimit="10"/>
<path d="M918.552 19.3884L918.381 11.6247" stroke="black" stroke-miterlimit="10"/>
<path d="M933.423 19.0607L933.251 11.297" stroke="black" stroke-miterlimit="10"/>
<path d="M940.858 18.8969L940.687 11.1331" stroke="black" stroke-miterlimit="10"/>
<path d="M948.293 18.733L948.122 10.9692" stroke="black" stroke-miterlimit="10"/>
<path d="M896.369 25.4568L896.075 12.1163" stroke="black" stroke-miterlimit="10"/>
<path d="M926.06 22.505L925.816 11.4608" stroke="black" stroke-miterlimit="10"/>
<path d="M866.577 23.8159L866.333 12.7717" stroke="black" stroke-miterlimit="10"/>
<path d="M1074.87 23.7111L1074.52 8.18365" stroke="black" stroke-miterlimit="10"/>
<path d="M963.164 18.4053L962.993 10.6415" stroke="black" stroke-miterlimit="10"/>
<path d="M970.599 18.2414L970.428 10.4777" stroke="black" stroke-miterlimit="10"/>
<path d="M978.035 18.0775L977.864 10.3138" stroke="black" stroke-miterlimit="10"/>
<path d="M992.905 17.7498L992.734 9.98608" stroke="black" stroke-miterlimit="10"/>
<path d="M1000.34 17.5859L1000.17 9.8222" stroke="black" stroke-miterlimit="10"/>
<path d="M1007.78 17.4221L1007.61 9.65839" stroke="black" stroke-miterlimit="10"/>
<path d="M1022.65 17.0944L1022.48 9.33063" stroke="black" stroke-miterlimit="10"/>
<path d="M1030.08 16.9305L1029.91 9.16681" stroke="black" stroke-miterlimit="10"/>
<path d="M1037.52 16.7667L1037.35 9.00293" stroke="black" stroke-miterlimit="10"/>
<path d="M1052.39 16.439L1052.22 8.67523" stroke="black" stroke-miterlimit="10"/>
<path d="M1059.82 16.2751L1059.65 8.51135" stroke="black" stroke-miterlimit="10"/>
<path d="M1067.26 16.1112L1067.09 8.34747" stroke="black" stroke-miterlimit="10"/>
<path d="M1015.33 22.835L1015.04 9.49451" stroke="black" stroke-miterlimit="10"/>
<path d="M1045.03 19.8832L1044.78 8.83905" stroke="black" stroke-miterlimit="10"/>
<path d="M985.542 21.1942L985.299 10.15" stroke="black" stroke-miterlimit="10"/>
<path d="M1193.83 21.0894L1193.49 5.56189" stroke="black" stroke-miterlimit="10"/>
<path d="M1082.13 15.7835L1081.96 8.01978" stroke="black" stroke-miterlimit="10"/>
<path d="M1089.57 15.6196L1089.39 7.8559" stroke="black" stroke-miterlimit="10"/>
<path d="M1097 15.4558L1096.83 7.69208" stroke="black" stroke-miterlimit="10"/>
<path d="M1111.87 15.1281L1111.7 7.36432" stroke="black" stroke-miterlimit="10"/>
<path d="M1119.31 14.9642L1119.14 7.2005" stroke="black" stroke-miterlimit="10"/>
<path d="M1126.74 14.8004L1126.57 7.03662" stroke="black" stroke-miterlimit="10"/>
<path d="M1141.61 14.4727L1141.44 6.70892" stroke="black" stroke-miterlimit="10"/>
<path d="M1149.05 14.3088L1148.88 6.54504" stroke="black" stroke-miterlimit="10"/>
<path d="M1156.48 14.1449L1156.31 6.38116" stroke="black" stroke-miterlimit="10"/>
<path d="M1171.35 13.8172L1171.18 6.05347" stroke="black" stroke-miterlimit="10"/>
<path d="M1178.79 13.6533L1178.62 5.88959" stroke="black" stroke-miterlimit="10"/>
<path d="M1186.22 13.4895L1186.05 5.72577" stroke="black" stroke-miterlimit="10"/>
<path d="M1134.3 20.2133L1134.01 6.87274" stroke="black" stroke-miterlimit="10"/>
<path d="M1163.99 17.2615L1163.75 6.21735" stroke="black" stroke-miterlimit="10"/>
<path d="M1104.51 18.5724L1104.26 7.5282" stroke="black" stroke-miterlimit="10"/>
<path d="M1312.8 18.4676L1312.45 2.94012" stroke="black" stroke-miterlimit="10"/>
<path d="M1201.1 13.1618L1200.92 5.39801" stroke="black" stroke-miterlimit="10"/>
<path d="M1208.53 12.9979L1208.36 5.23419" stroke="black" stroke-miterlimit="10"/>
<path d="M1215.97 12.8341L1215.8 5.07031" stroke="black" stroke-miterlimit="10"/>
<path d="M1230.84 12.5064L1230.67 4.74261" stroke="black" stroke-miterlimit="10"/>
<path d="M1238.27 12.3425L1238.1 4.57874" stroke="black" stroke-miterlimit="10"/>
<path d="M1245.71 12.1786L1245.54 4.41486" stroke="black" stroke-miterlimit="10"/>
<path d="M1260.58 11.8509L1260.41 4.08716" stroke="black" stroke-miterlimit="10"/>
<path d="M1268.01 11.687L1267.84 3.92328" stroke="black" stroke-miterlimit="10"/>
<path d="M1275.45 11.5231L1275.28 3.7594" stroke="black" stroke-miterlimit="10"/>
<path d="M1290.32 11.1954L1290.15 3.4317" stroke="black" stroke-miterlimit="10"/>
<path d="M1297.76 11.0316L1297.58 3.26782" stroke="black" stroke-miterlimit="10"/>
<path d="M1305.19 10.8677L1305.02 3.104" stroke="black" stroke-miterlimit="10"/>
<path d="M1253.27 17.5915L1252.97 4.25098" stroke="black" stroke-miterlimit="10"/>
<path d="M1282.96 14.6398L1282.71 3.59558" stroke="black" stroke-miterlimit="10"/>
<path d="M1223.47 15.9506L1223.23 4.90643" stroke="black" stroke-miterlimit="10"/>
<path d="M1431.76 15.8458L1431.42 0.318359" stroke="black" stroke-miterlimit="10"/>
<path d="M1320.06 10.54L1319.89 2.77625" stroke="black" stroke-miterlimit="10"/>
<path d="M1327.5 10.3762L1327.33 2.61243" stroke="black" stroke-miterlimit="10"/>
<path d="M1334.93 10.2123L1334.76 2.44855" stroke="black" stroke-miterlimit="10"/>
<path d="M1349.8 9.88459L1349.63 2.12085" stroke="black" stroke-miterlimit="10"/>
<path d="M1357.24 9.72071L1357.07 1.95697" stroke="black" stroke-miterlimit="10"/>
<path d="M1364.67 9.55683L1364.5 1.79309" stroke="black" stroke-miterlimit="10"/>
<path d="M1379.54 9.22913L1379.37 1.46539" stroke="black" stroke-miterlimit="10"/>
<path d="M1386.98 9.06525L1386.81 1.30151" stroke="black" stroke-miterlimit="10"/>
<path d="M1394.41 8.90144L1394.24 1.1377" stroke="black" stroke-miterlimit="10"/>
<path d="M1409.29 8.57368L1409.11 0.809937" stroke="black" stroke-miterlimit="10"/>
<path d="M1416.72 8.40986L1416.55 0.646118" stroke="black" stroke-miterlimit="10"/>
<path d="M1424.16 8.24598L1423.99 0.482239" stroke="black" stroke-miterlimit="10"/>
<path d="M1372.23 14.9698L1371.94 1.62927" stroke="black" stroke-miterlimit="10"/>
<path d="M1401.92 12.018L1401.68 0.973816" stroke="black" stroke-miterlimit="10"/>
<path d="M1342.44 13.3289L1342.2 2.28467" stroke="black" stroke-miterlimit="10"/>
<path d="M123.341 54.4695L124.045 54.454L123.92 48.7994L123.392 48.811C123.173 49.7521 123.063 49.8345 121.744 49.9196L121.756 50.4474L123.252 50.4145L123.341 54.4695Z" fill="black"/>
<path d="M244.213 51.1896L241.23 51.2553C241.266 50.7264 241.569 50.3196 242.233 49.9449L243.024 49.5034C243.814 49.0619 244.194 48.4934 244.178 47.7735C244.157 46.8378 243.541 46.0992 242.397 46.1244C241.133 46.1522 240.509 46.8861 240.498 48.1667L241.201 48.1512C241.239 47.3262 241.563 46.7589 242.387 46.7407C243.099 46.7251 243.444 47.1575 243.458 47.7894C243.469 48.2773 243.221 48.6428 242.723 48.9339L241.988 49.3582C240.85 50.0154 240.511 50.575 240.452 51.8886L244.227 51.8054L244.213 51.1896Z" fill="black"/>
<path d="M361.271 46.5774C362.038 46.5605 362.454 46.9114 362.47 47.6072C362.483 48.2151 362.134 48.7349 361.319 48.7528C360.511 48.7707 360.134 48.3629 360.077 47.5879L359.365 47.6036C359.455 48.8099 360.116 49.3955 361.308 49.3692C362.436 49.3444 363.205 48.6713 363.181 47.5835C363.166 46.8717 362.852 46.4385 362.183 46.2212C362.73 46.0011 362.968 45.5477 362.957 45.0119C362.934 43.9801 362.219 43.4837 361.203 43.5061C360.067 43.5312 359.425 44.1695 359.435 45.3615L360.139 45.346C360.145 44.5057 360.497 44.1378 361.217 44.122C361.8 44.1091 362.231 44.4197 362.245 45.0515C362.263 45.8593 361.682 46.0082 360.866 45.9862L360.879 46.586L361.271 46.5774Z" fill="black"/>
<path d="M480.734 46.5933L481.414 46.5783L481.383 45.1546L482.222 45.1361L482.209 44.5283L481.369 44.5468L481.29 40.9397L480.674 40.9532L478.272 44.503L478.287 45.2229L480.703 45.1696L480.734 46.5933ZM478.858 44.6021L480.632 41.9704L480.689 44.5618L478.858 44.6021Z" fill="black"/>
<path d="M597.77 38.4207L597.42 41.4611L598.06 41.447C598.348 41.0486 598.68 40.8732 599.128 40.8634C599.951 40.8452 600.339 41.3808 600.356 42.1566C600.374 42.9324 599.97 43.4935 599.162 43.5113C598.554 43.5247 598.148 43.2375 597.975 42.6412L597.263 42.6569C597.466 43.8847 598.528 44.1414 599.176 44.1271C600.383 44.1005 601.101 43.2525 601.076 42.1088C601.05 40.949 600.242 40.2467 599.235 40.2689C598.851 40.2773 598.461 40.3819 598.163 40.6606L598.359 39.0239L600.71 38.972L600.697 38.3562L597.77 38.4207Z" fill="black"/>
<path d="M719.955 37.0403C719.783 36.1319 719.204 35.6165 718.34 35.6355C717.012 35.6648 716.301 36.8007 716.344 38.7283C716.377 40.2159 716.878 41.5332 718.341 41.5009C719.525 41.4748 720.145 40.541 720.122 39.5332C720.102 38.5974 719.483 37.7549 718.411 37.7785C717.78 37.7924 717.266 38.1078 717.028 38.5532C716.997 37.1215 717.457 36.2471 718.305 36.2285C718.881 36.2158 719.145 36.57 719.26 37.0556L719.955 37.0403ZM718.264 38.3739C718.968 38.3584 719.396 38.9011 719.412 39.6129C719.428 40.3327 719.024 40.8937 718.32 40.9093C717.648 40.9241 717.14 40.3831 717.125 39.6633C717.109 38.9515 717.593 38.3887 718.264 38.3739Z" fill="black"/>
<path d="M835.165 33.189L835.179 33.8049L838.282 33.7365C837.059 35.6119 836.524 36.4159 836.024 38.7635L836.776 38.7469C837.07 36.828 837.752 35.4766 838.969 33.6974L838.956 33.1055L835.165 33.189Z" fill="black"/>
<path d="M957.019 33.0803C957.594 32.6915 957.772 32.4155 957.76 31.8796C957.741 30.9838 957.039 30.3751 956.023 30.3975C955.04 30.4192 954.333 31.0509 954.353 31.9467C954.366 32.5386 954.636 32.8207 955.155 33.1213C954.514 33.4555 954.197 33.9266 954.21 34.5425C954.233 35.5822 955.033 36.2848 956.153 36.2601C957.296 36.2349 958.04 35.4983 958.017 34.4586C958.004 33.8427 957.674 33.3859 957.019 33.0803ZM956.036 30.9894C956.66 30.9756 957.068 31.3347 957.081 31.9106C957.093 32.4465 956.677 32.8077 956.077 32.8209C955.397 32.8359 955.044 32.4276 955.033 31.9397C955.022 31.4279 955.373 31.004 956.036 30.9894ZM956.09 33.4128C956.746 33.3983 957.322 33.7697 957.338 34.4976C957.353 35.1854 956.859 35.6524 956.124 35.6686C955.452 35.6834 954.906 35.2473 954.891 34.5595C954.875 33.8477 955.426 33.4274 956.09 33.4128Z" fill="black"/>
<path d="M1073.26 32.2391C1073.43 33.1475 1074.01 33.6628 1074.87 33.6438C1076.2 33.6146 1076.91 32.4786 1076.87 30.5511C1076.83 29.0634 1076.33 27.7462 1074.87 27.7784C1073.69 27.8045 1073.07 28.7384 1073.09 29.7461C1073.11 30.6819 1073.73 31.5245 1074.8 31.5009C1075.43 31.4869 1075.94 31.1716 1076.18 30.7262C1076.21 32.1578 1075.75 33.0322 1074.91 33.0509C1074.33 33.0636 1074.07 32.7093 1073.95 32.2237L1073.26 32.2391ZM1074.95 30.9055C1074.24 30.921 1073.81 30.3783 1073.8 29.6665C1073.78 28.9466 1074.19 28.3856 1074.89 28.3701C1075.56 28.3553 1076.07 28.8962 1076.09 29.6161C1076.1 30.3279 1075.62 30.8907 1074.95 30.9055Z" fill="black"/>
<path d="M1191.61 30.9271L1192.31 30.9116L1192.19 25.257L1191.66 25.2686C1191.44 26.2097 1191.33 26.2921 1190.01 26.3772L1190.02 26.9051L1191.52 26.8721L1191.61 30.9271ZM1196.47 25.0985C1195.02 25.1306 1194.65 26.5791 1194.68 28.0667C1194.71 29.5543 1195.15 30.9932 1196.6 30.9611C1198.06 30.929 1198.43 29.4726 1198.39 27.9849C1198.36 26.4973 1197.93 25.0664 1196.47 25.0985ZM1196.49 25.7064C1196.75 25.7006 1196.97 25.7838 1197.14 25.956L1195.65 29.6939C1195.45 29.298 1195.35 28.7321 1195.34 28.0522C1195.31 26.6446 1195.66 25.7245 1196.49 25.7064ZM1197.74 27.9994C1197.77 29.407 1197.41 30.3351 1196.59 30.3532C1196.36 30.3582 1196.17 30.2984 1196.02 30.1738L1197.48 26.4767C1197.64 26.8652 1197.72 27.3835 1197.74 27.9994Z" fill="black"/>
<path d="M1310.57 28.3054L1311.28 28.2899L1311.15 22.6352L1310.62 22.6469C1310.4 23.5879 1310.29 23.6704 1308.98 23.7555L1308.99 24.2833L1310.48 24.2504L1310.57 28.3054ZM1315.52 28.1964L1316.22 28.1809L1316.1 22.5263L1315.57 22.5379C1315.35 23.479 1315.24 23.5614 1313.92 23.6465L1313.93 24.1744L1315.43 24.1414L1315.52 28.1964Z" fill="black"/>
<path d="M1429.54 25.6837L1430.24 25.6682L1430.12 20.0135L1429.59 20.0252C1429.37 20.9662 1429.26 21.0487 1427.94 21.1337L1427.95 21.6616L1429.45 21.6287L1429.54 25.6837ZM1436.39 24.9166L1433.4 24.9823C1433.44 24.4534 1433.74 24.0466 1434.41 23.6719L1435.2 23.2304C1435.99 22.7888 1436.37 22.2203 1436.35 21.5005C1436.33 20.5647 1435.72 19.8261 1434.57 19.8513C1433.31 19.8792 1432.68 20.6131 1432.67 21.8937L1433.38 21.8782C1433.41 21.0531 1433.74 20.4859 1434.56 20.4677C1435.27 20.452 1435.62 20.8845 1435.63 21.5164C1435.64 22.0043 1435.4 22.3698 1434.9 22.6608L1434.16 23.0851C1433.03 23.7424 1432.69 24.302 1432.63 25.6156L1436.4 25.5324L1436.39 24.9166Z" fill="black"/>
<path d="M6.09319 51.3312C4.63754 51.3633 4.26937 52.8117 4.30215 54.2994C4.33493 55.787 4.76674 57.2259 6.22239 57.1938C7.67803 57.1617 8.04603 55.7052 8.01325 54.2176C7.98046 52.73 7.54883 51.2991 6.09319 51.3312ZM6.10658 51.9391C6.37052 51.9332 6.58841 52.0165 6.76024 52.1887L5.26623 55.9265C5.07347 55.5307 4.97297 54.9648 4.95799 54.2849C4.92697 52.8773 5.28278 51.9572 6.10658 51.9391ZM7.35741 54.2321C7.38843 55.6397 7.03279 56.5678 6.20899 56.5859C5.98505 56.5909 5.79168 56.5311 5.6369 56.4065L7.0998 52.7094C7.2604 53.0979 7.34384 53.6162 7.35741 54.2321ZM10.7298 52.1572L11.5296 52.1396L11.512 51.3398L10.7122 51.3574L10.7298 52.1572ZM11.4709 52.7411L9.37538 52.7872L9.38736 53.3311L10.827 53.2994L10.8954 56.4026L9.45575 56.4344L9.46774 56.9782L12.8509 56.9037L12.8389 56.3598L11.5512 56.3882L11.4709 52.7411ZM14.4438 56.8686L15.1077 56.8539L15.0557 54.4945C15.0398 53.7747 15.4174 53.1182 16.1693 53.1016C16.6332 53.0914 17.0389 53.3465 17.0512 53.9064L17.1152 56.8097L17.779 56.7951L17.7092 53.6278C17.6921 52.852 17.0842 52.4973 16.3564 52.5134C15.6925 52.528 15.2993 52.8407 14.9827 53.3598L14.9673 52.664L14.3515 52.6776L14.4438 56.8686Z" fill="black"/>
</g>
<defs>
<clipPath id="clip0_1295_327">
<rect width="1440" height="28" fill="white" transform="translate(-0.133789 31.8668) rotate(-1.26247)"/>
</clipPath>
</defs>
</svg>
