<svg width="993" height="1050" viewBox="0 0 993 1050" fill="none" xmlns="http://www.w3.org/2000/svg">
<path d="M482.602 1049.27C748.584 1049.27 964.205 833.758 964.205 567.907C964.205 302.056 748.584 86.5408 482.602 86.5408C216.621 86.5408 1 302.056 1 567.907C1 833.758 216.621 1049.27 482.602 1049.27Z" stroke="#343341" stroke-width="0.75" stroke-miterlimit="10"/>
<path d="M494.292 696.895C572.795 696.895 636.435 633.286 636.435 554.821C636.435 476.357 572.795 412.748 494.292 412.748C415.788 412.748 352.149 476.357 352.149 554.821C352.149 633.286 415.788 696.895 494.292 696.895Z" stroke="#343341" stroke-width="0.75" stroke-miterlimit="10"/>
<path d="M505.046 652.964C555.918 652.964 597.158 611.744 597.158 560.897C597.158 510.05 555.918 468.83 505.046 468.83C454.174 468.83 412.934 510.05 412.934 560.897C412.934 611.744 454.174 652.964 505.046 652.964Z" stroke="#343341" stroke-width="0.75" stroke-miterlimit="10"/>
<path d="M505.046 629.13C542.748 629.13 573.312 598.581 573.312 560.897C573.312 523.213 542.748 492.665 505.046 492.665C467.344 492.665 436.78 523.213 436.78 560.897C436.78 598.581 467.344 629.13 505.046 629.13Z" stroke="#343341" stroke-width="0.75" stroke-miterlimit="10"/>
<path d="M505.046 602.491C525.446 602.491 541.984 585.961 541.984 565.57C541.984 545.18 525.446 528.65 505.046 528.65C484.645 528.65 468.107 545.18 468.107 565.57C468.107 585.961 484.645 602.491 505.046 602.491Z" stroke="#343341" stroke-width="0.75" stroke-miterlimit="10"/>
<path d="M482.603 835.696C654.845 835.696 794.475 696.135 794.475 523.977C794.475 351.819 654.845 212.257 482.603 212.257C310.36 212.257 170.73 351.819 170.73 523.977C170.73 696.135 310.36 835.696 482.603 835.696Z" stroke="#343341" stroke-width="0.75" stroke-miterlimit="10" stroke-linecap="round" stroke-dasharray="0.5 1.5"/>
<path d="M492.889 835.696C638.017 835.696 755.666 718.105 755.666 573.048C755.666 427.991 638.017 310.4 492.889 310.4C347.761 310.4 230.112 427.991 230.112 573.048C230.112 718.105 347.761 835.696 492.889 835.696Z" stroke="#343341" stroke-width="0.75" stroke-miterlimit="10" stroke-linecap="round" stroke-dasharray="0.5 1.5"/>
<path d="M500.37 767.464C626.647 767.464 729.015 665.147 729.015 538.932C729.015 412.717 626.647 310.4 500.37 310.4C374.094 310.4 271.726 412.717 271.726 538.932C271.726 665.147 374.094 767.464 500.37 767.464Z" stroke="#343341" stroke-width="0.75" stroke-miterlimit="10" stroke-linecap="round" stroke-dasharray="0.5 1.5"/>
<path d="M745.38 612.305C745.38 735.684 625.68 836.164 477.927 836.164C330.173 836.164 210.474 736.152 210.474 612.305C210.474 488.926 330.173 388.446 477.927 388.446C625.68 388.446 745.38 488.458 745.38 612.305Z" stroke="#343341" stroke-width="0.75" stroke-miterlimit="10" stroke-linecap="round" stroke-dasharray="0.5 1.5"/>
<path d="M505.046 574.917C514.084 574.917 521.411 567.594 521.411 558.56C521.411 549.526 514.084 542.203 505.046 542.203C496.008 542.203 488.681 549.526 488.681 558.56C488.681 567.594 496.008 574.917 505.046 574.917Z" fill="#101010"/>
<path d="M579.391 624.923C584.555 624.923 588.742 620.739 588.742 615.576C588.742 610.414 584.555 606.229 579.391 606.229C574.226 606.229 570.039 610.414 570.039 615.576C570.039 620.739 574.226 624.923 579.391 624.923Z" fill="#101010"/>
<path d="M497.097 502.011C502.262 502.011 506.449 497.827 506.449 492.665C506.449 487.502 502.262 483.318 497.097 483.318C491.932 483.318 487.746 487.502 487.746 492.665C487.746 497.827 491.932 502.011 497.097 502.011Z" fill="#101010"/>
<path d="M352.149 561.832C356.022 561.832 359.163 558.693 359.163 554.821C359.163 550.95 356.022 547.811 352.149 547.811C348.275 547.811 345.135 550.95 345.135 554.821C345.135 558.693 348.275 561.832 352.149 561.832Z" fill="#101010"/>
<path d="M195.044 962.815C200.983 962.815 205.798 958.002 205.798 952.066C205.798 946.129 200.983 941.317 195.044 941.317C189.104 941.317 184.29 946.129 184.29 952.066C184.29 958.002 189.104 962.815 195.044 962.815Z" fill="black"/>
<path d="M369.857 728.976C479.686 687.974 550.921 607.105 528.964 548.348C507.008 489.592 400.175 475.199 290.346 516.2C180.516 557.202 109.282 638.072 131.238 696.828C153.195 755.585 260.028 769.978 369.857 728.976Z" stroke="#343341" stroke-width="0.75" stroke-miterlimit="10" stroke-dasharray="8 8"/>
<path d="M822.27 445.358C861.317 264.188 771 91.0573 620.539 58.6602C470.079 26.2631 316.452 146.868 277.405 328.038C238.357 509.208 328.674 682.339 479.135 714.736C629.595 747.133 783.222 626.529 822.27 445.358Z" stroke="#343341" stroke-width="0.75" stroke-miterlimit="10" stroke-dasharray="8 8"/>
<path d="M992.727 418.824C794.475 607.164 591.08 691.754 482.602 613.24C370.384 531.922 392.828 300.118 520.944 43.0776" stroke="#343341" stroke-width="0.75" stroke-miterlimit="10" stroke-dasharray="8 8"/>
</svg>
